<svg width="40" height="40" viewBox="0 0 40 40" fill="none" xmlns="http://www.w3.org/2000/svg">
<path d="M11.0791 25.7187H15.2108V33.982H11.0791V25.7187ZM28.2944 27.0959H27.6057C27.4231 27.0959 27.248 27.1684 27.1188 27.2976C26.9897 27.4267 26.9171 27.6019 26.9171 27.7845C26.9171 27.9671 26.9897 28.1423 27.1188 28.2714C27.248 28.4006 27.4231 28.4731 27.6057 28.4731C27.7884 28.4731 27.9635 28.5457 28.0927 28.6748C28.2218 28.8039 28.2944 28.9791 28.2944 29.1617C28.2944 29.3444 28.2218 29.5195 28.0927 29.6486C27.9635 29.7778 27.7884 29.8503 27.6057 29.8503C27.4231 29.8503 27.248 29.9229 27.1188 30.052C26.9897 30.1812 26.9171 30.3563 26.9171 30.5389C26.9171 30.7216 26.9897 30.8967 27.1188 31.0259C27.248 31.155 27.4231 31.2276 27.6057 31.2276C27.7884 31.2276 27.9635 31.3001 28.0927 31.4292C28.2218 31.5584 28.2944 31.7335 28.2944 31.9162C28.2944 32.0988 28.2218 32.2739 28.0927 32.4031C27.9635 32.5322 27.7884 32.6048 27.6057 32.6048C27.4231 32.6048 27.248 32.6773 27.1188 32.8065C26.9897 32.9356 26.9171 33.1108 26.9171 33.2934C26.9171 33.476 26.9897 33.6512 27.1188 33.7803C27.248 33.9094 27.4231 33.982 27.6057 33.982C27.7884 33.982 27.9635 34.0545 28.0927 34.1837C28.2218 34.3128 28.2944 34.488 28.2944 34.6706C28.2944 34.8532 28.2218 35.0284 28.0927 35.1575C27.9635 35.2867 27.7884 35.3592 27.6057 35.3592H19.6977C18.7039 35.3602 17.7321 35.0659 16.9056 34.5139L16.588 34.3021V25.4393C17.4409 24.9399 18.1701 24.2546 18.7212 23.4342C19.2723 22.6138 19.6312 21.6796 19.771 20.7013L19.9396 19.5208H20.7196C21.0848 19.5212 21.4348 19.6664 21.693 19.9246C21.9512 20.1828 22.0964 20.5328 22.0969 20.898V25.0296C22.0969 25.2123 22.1694 25.3874 22.2986 25.5166C22.4277 25.6457 22.6028 25.7182 22.7855 25.7182H28.2944C28.477 25.7182 28.6521 25.7908 28.7813 25.9199C28.9104 26.0491 28.983 26.2242 28.983 26.4069C28.983 26.5895 28.9104 26.7646 28.7813 26.8938C28.6521 27.0229 28.477 27.0955 28.2944 27.0955V27.0959Z" fill="white"/>
<path d="M20.5397 5.36957L21.4311 8.11308H24.3157C24.4286 8.11308 24.5386 8.14883 24.6299 8.21519C24.7213 8.28156 24.7893 8.37513 24.8242 8.48252C24.8591 8.5899 24.8591 8.70557 24.8242 8.81296C24.7893 8.92034 24.7214 9.01394 24.63 9.08032L22.2962 10.776L23.1876 13.5195C23.2226 13.6269 23.2226 13.7426 23.1877 13.85C23.1528 13.9574 23.0848 14.051 22.9934 14.1174C22.9021 14.1837 22.792 14.2195 22.6791 14.2194C22.5662 14.2194 22.4562 14.1836 22.3648 14.1172L20.0311 12.4215L17.6974 14.1172C17.6061 14.1836 17.4961 14.2194 17.3832 14.2194C17.2702 14.2195 17.1602 14.1837 17.0688 14.1174C16.9775 14.051 16.9095 13.9574 16.8746 13.85C16.8397 13.7426 16.8397 13.6269 16.8746 13.5195L17.766 10.7758L15.4323 9.08015C15.3409 9.01376 15.2729 8.92017 15.2381 8.81278C15.2032 8.7054 15.2032 8.58972 15.2381 8.48234C15.273 8.37496 15.341 8.28138 15.4323 8.21502C15.5237 8.14865 15.6337 8.11291 15.7466 8.11291H18.6312L19.5226 5.3694C19.5575 5.26201 19.6255 5.16843 19.7169 5.10207C19.8083 5.03571 19.9183 4.99998 20.0312 5C20.1441 5.00002 20.2541 5.03579 20.3455 5.10218C20.4368 5.16857 20.5048 5.26217 20.5397 5.36957Z" fill="white"/>
<path d="M9.79163 10.3827L10.4975 12.556H12.7826C12.872 12.5561 12.9591 12.5844 13.0314 12.637C13.1038 12.6895 13.1576 12.7636 13.1852 12.8487C13.2129 12.9337 13.2129 13.0253 13.1853 13.1103C13.1577 13.1954 13.1039 13.2695 13.0316 13.3221L11.1829 14.6649L11.8887 16.8382C11.9163 16.9233 11.9163 17.0149 11.8886 17.1C11.8609 17.185 11.8071 17.2591 11.7347 17.3117C11.6623 17.3642 11.5752 17.3925 11.4858 17.3925C11.3963 17.3925 11.3092 17.3642 11.2368 17.3116L9.3881 15.9684L7.53935 17.3116C7.46699 17.3642 7.37987 17.3925 7.29046 17.3924C7.20104 17.3924 7.11393 17.3641 7.04158 17.3116C6.96924 17.259 6.91538 17.1849 6.88772 17.0999C6.86005 17.0149 6.86001 16.9233 6.88758 16.8382L7.59341 14.6649L5.74466 13.3221C5.67238 13.2695 5.61859 13.1954 5.59099 13.1103C5.5634 13.0253 5.56342 12.9337 5.59105 12.8487C5.61867 12.7637 5.67249 12.6896 5.7448 12.637C5.81711 12.5844 5.9042 12.5561 5.99359 12.556H8.27875L8.98457 10.3827C9.01189 10.2971 9.0657 10.2224 9.13823 10.1694C9.21077 10.1164 9.29827 10.0879 9.3881 10.0879C9.47793 10.0879 9.56543 10.1164 9.63796 10.1694C9.7105 10.2224 9.76431 10.2971 9.79163 10.3827Z" fill="white"/>
<path d="M4.22071 19.3346L4.92654 21.5079H7.21203C7.30143 21.508 7.38852 21.5363 7.46083 21.5889C7.53313 21.6415 7.58695 21.7156 7.61458 21.8006C7.64221 21.8856 7.64223 21.9772 7.61463 22.0622C7.58704 22.1473 7.53325 22.2214 7.46097 22.274L5.61222 23.6168L6.31804 25.7901C6.34562 25.8752 6.34557 25.9668 6.31791 26.0518C6.29025 26.1368 6.23639 26.2109 6.16404 26.2635C6.0917 26.316 6.00458 26.3443 5.91517 26.3443C5.82576 26.3444 5.73863 26.3161 5.66628 26.2636L3.81787 24.921L1.96913 26.2642C1.89677 26.3168 1.80963 26.3451 1.7202 26.3451C1.63077 26.3451 1.54363 26.3168 1.47127 26.2643C1.3989 26.2117 1.34503 26.1376 1.31737 26.0526C1.28971 25.9675 1.28967 25.8759 1.31727 25.7908L2.0231 23.6175L0.174349 22.2747C0.102058 22.2221 0.0482652 22.148 0.0206744 22.0629C-0.00691653 21.9779 -0.00689079 21.8863 0.0207477 21.8013C0.0483863 21.7162 0.10222 21.6421 0.174541 21.5896C0.246863 21.537 0.333962 21.5087 0.423368 21.5086H2.70887L3.41469 19.3353C3.44218 19.2501 3.49597 19.1757 3.56834 19.123C3.6407 19.0703 3.72791 19.0418 3.81745 19.0417C3.90699 19.0417 3.99425 19.07 4.0667 19.1226C4.13916 19.1752 4.19307 19.2494 4.22071 19.3346Z" fill="white"/>
<path d="M36.585 19.3345L37.2908 21.5078H39.5763C39.6657 21.5079 39.7528 21.5363 39.8251 21.5888C39.8974 21.6414 39.9512 21.7155 39.9788 21.8005C40.0065 21.8855 40.0065 21.9771 39.9789 22.0622C39.9513 22.1472 39.8975 22.2213 39.8252 22.2739L37.9765 23.6167L38.6823 25.7901C38.7099 25.8751 38.7098 25.9667 38.6822 26.0517C38.6545 26.1368 38.6006 26.2109 38.5283 26.2634C38.456 26.316 38.3688 26.3443 38.2794 26.3443C38.19 26.3443 38.1029 26.316 38.0305 26.2635L36.1818 24.9203L34.3334 26.2642C34.261 26.3167 34.1739 26.345 34.0845 26.345C33.995 26.345 33.9079 26.3167 33.8355 26.2642C33.7632 26.2116 33.7093 26.1375 33.6816 26.0525C33.654 25.9674 33.6539 25.8758 33.6815 25.7907L34.3874 23.6174L32.5386 22.2746C32.4663 22.222 32.4125 22.1479 32.3849 22.0628C32.3573 21.9778 32.3574 21.8862 32.385 21.8012C32.4126 21.7161 32.4665 21.642 32.5388 21.5895C32.6111 21.5369 32.6982 21.5086 32.7876 21.5085H35.0728L35.7786 19.3352C35.806 19.2499 35.8598 19.1754 35.9322 19.1226C36.0046 19.0697 36.0919 19.0412 36.1815 19.0411C36.2712 19.0411 36.3585 19.0694 36.431 19.1221C36.5035 19.1749 36.5574 19.2492 36.585 19.3345Z" fill="white"/>
<path d="M31.0762 10.3826L31.782 12.5559H34.0675C34.1569 12.556 34.244 12.5844 34.3163 12.6369C34.3886 12.6895 34.4424 12.7636 34.4701 12.8486C34.4977 12.9336 34.4977 13.0252 34.4701 13.1103C34.4425 13.1953 34.3887 13.2694 34.3164 13.322L32.4677 14.6648L33.1735 16.8382C33.2011 16.9232 33.201 17.0148 33.1734 17.0998C33.1457 17.1849 33.0919 17.259 33.0195 17.3115C32.9472 17.364 32.8601 17.3924 32.7706 17.3924C32.6812 17.3924 32.5941 17.3641 32.5217 17.3116L30.673 15.9684L28.8246 17.3123C28.7522 17.3648 28.6651 17.3931 28.5757 17.3931C28.4862 17.3931 28.3991 17.3648 28.3267 17.3123C28.2544 17.2597 28.2005 17.1856 28.1728 17.1006C28.1452 17.0155 28.1451 16.9239 28.1727 16.8388L28.8786 14.6655L27.0298 13.3227C26.9575 13.2701 26.9037 13.196 26.8761 13.1109C26.8486 13.0259 26.8486 12.9343 26.8762 12.8493C26.9039 12.7642 26.9577 12.6901 27.03 12.6376C27.1023 12.585 27.1894 12.5567 27.2788 12.5566H29.564L30.2698 10.3833C30.2972 10.2979 30.351 10.2235 30.4234 10.1707C30.4958 10.1178 30.5831 10.0893 30.6727 10.0892C30.7624 10.0892 30.8497 10.1175 30.9222 10.1702C30.9947 10.223 31.0486 10.2973 31.0762 10.3826Z" fill="white"/>
</svg>
