<svg width="40" height="40" viewBox="0 0 40 40" fill="none" xmlns="http://www.w3.org/2000/svg">
<path d="M8.86532 31.3732C10.9807 31.3732 12.6955 29.6584 12.6955 27.5431C12.6955 25.4277 10.9807 23.7129 8.86532 23.7129C6.74998 23.7129 5.03516 25.4277 5.03516 27.5431C5.03516 29.6584 6.74998 31.3732 8.86532 31.3732Z" fill="#0046E2"/>
<path d="M31.2811 21.79C31.4929 21.2134 31.6014 20.6039 31.6014 19.9895C31.6005 17.1052 29.2616 14.7679 26.3774 14.7688C25.7642 14.769 25.1558 14.8772 24.5801 15.0885V24.8899C27.2866 25.8843 30.2867 24.4965 31.2811 21.79Z" fill="#0046E2"/>
<path d="M15.3483 10.0912L10.5068 16.4482C10.3869 16.6045 10.2191 16.7171 10.0291 16.7689L1.92849 18.9811C0.794525 19.2914 0.00614525 20.319 0 21.4946V24.4513C0.0117318 25.8898 1.18547 27.0473 2.62391 27.039H3.26905C3.53631 23.9485 6.25844 21.6598 9.34894 21.9272C12.0687 22.1625 14.2256 24.3192 14.4608 27.039H22.7933V8.60327H18.3505C17.1732 8.60707 16.0642 9.15668 15.3483 10.0912Z" fill="#0046E2"/>
<path d="M37.6406 18.4445C37.2514 18.4078 36.9298 18.1251 36.8435 17.7437C36.5678 16.4694 36.0572 15.2577 35.3377 14.1704C35.1188 13.8418 35.1416 13.4085 35.3936 13.1045L36.893 11.2928L35.0692 9.44586L33.2653 10.9402C32.9653 11.1892 32.5385 11.215 32.2107 11.004C31.1168 10.2882 29.9023 9.77625 28.6261 9.49301C28.2466 9.41279 27.9628 9.09558 27.9252 8.70943L27.6993 6.36865H24.5802V13.2164C28.3211 12.2235 32.1586 14.4511 33.1515 18.1921C34.1443 21.933 31.9167 25.7706 28.1757 26.7634C26.9976 27.0761 25.7583 27.0761 24.5801 26.7634V33.6312H27.6992L27.9256 31.28C27.9628 30.8925 28.246 30.5732 28.6264 30.4903C29.9009 30.2146 31.1128 29.7038 32.2002 28.9844C32.5288 28.7655 32.9622 28.7883 33.2661 29.0403L35.0743 30.5375L36.929 28.6827L35.4318 26.8747C35.1835 26.5741 35.1586 26.1474 35.3702 25.82C36.0875 24.7264 36.601 23.512 36.8859 22.2355C36.9699 21.855 37.2896 21.572 37.6774 21.5347L39.9992 21.3089V18.6709L37.6406 18.4445Z" fill="#0046E2"/>
</svg>
