<svg width="40" height="40" viewBox="0 0 40 40" fill="none" xmlns="http://www.w3.org/2000/svg">
<g clip-path="url(#clip0_509_1270)">
<path d="M33.0101 0.399487C32.6865 0.0405129 32.3767 0.00358974 32.3374 0H7.66271C7.62339 0.00358974 7.31359 0.0410257 6.98997 0.399487C6.53244 0.906667 6.02922 2.05692 6.23486 4.6559C6.4065 6.83282 7.05374 9.64308 8.15797 13.0087C8.32642 13.5215 8.50178 14.0226 8.6798 14.499C10.3999 19.1144 12.7147 22.6138 15.5597 24.901C16.189 25.4105 16.8649 25.8638 17.579 26.2554L17.6125 26.2739C18.7332 26.878 19.5994 27.1154 19.999 27.201C20.3991 27.1154 21.2663 26.8774 22.3902 26.2713L22.4195 26.2554C23.1334 25.8633 23.8092 25.4098 24.4388 24.9005C27.2854 22.6154 29.6002 19.1154 31.3187 14.5C31.4967 14.0236 31.6721 13.5221 31.8405 13.0097C32.9463 9.6441 33.593 6.83436 33.7631 4.65692C33.9709 2.05692 33.4676 0.906667 33.0101 0.399487ZM25.5977 8.50205L22.8387 11.0974C22.8345 11.1013 22.8314 11.1062 22.8296 11.1116C22.8279 11.117 22.8275 11.1227 22.8286 11.1282L23.4796 14.7928C23.4809 14.7993 23.4802 14.8061 23.4777 14.8122C23.4751 14.8184 23.4708 14.8237 23.4652 14.8276C23.4596 14.8315 23.453 14.8337 23.4462 14.8341C23.4393 14.8345 23.4325 14.833 23.4265 14.8297L20.0165 13.0995C20.0112 13.097 20.0054 13.0956 19.9995 13.0956C19.9936 13.0956 19.9878 13.097 19.9825 13.0995L16.5726 14.8297C16.5666 14.833 16.5597 14.8345 16.5529 14.8341C16.546 14.8337 16.5394 14.8315 16.5338 14.8276C16.5282 14.8237 16.5239 14.8184 16.5214 14.8122C16.5188 14.8061 16.5181 14.7993 16.5194 14.7928L17.1714 11.1282C17.1725 11.1227 17.1722 11.117 17.1704 11.1116C17.1687 11.1062 17.1656 11.1013 17.1613 11.0974L14.4024 8.50256C14.3976 8.49795 14.3942 8.49215 14.3926 8.4858C14.391 8.47945 14.3913 8.4728 14.3934 8.46659C14.3955 8.46038 14.3993 8.45485 14.4045 8.45061C14.4096 8.44637 14.4159 8.44358 14.4226 8.44257L18.2353 7.90821C18.2411 7.90739 18.2465 7.90524 18.2513 7.90193C18.256 7.89863 18.2598 7.89427 18.2624 7.88923L19.9676 4.5559C19.9706 4.55006 19.9752 4.54514 19.981 4.5417C19.9867 4.53826 19.9933 4.53644 20 4.53644C20.0068 4.53644 20.0134 4.53826 20.0191 4.5417C20.0249 4.54514 20.0295 4.55006 20.0325 4.5559L21.7377 7.88923C21.7403 7.89427 21.7441 7.89863 21.7488 7.90193C21.7535 7.90524 21.759 7.90739 21.7648 7.90821L25.5797 8.44257C25.5862 8.44388 25.5922 8.44688 25.5971 8.45124C25.602 8.4556 25.6055 8.46116 25.6074 8.46733C25.6092 8.47349 25.6093 8.48003 25.6076 8.48624C25.6059 8.49244 25.6025 8.49809 25.5977 8.50256V8.50205Z" fill="white"/>
<path d="M9.37907 15.956C4.20703 15.956 0 11.8955 0 6.9052V4.74776C0 4.39414 0.145563 4.055 0.404667 3.80495C0.663771 3.5549 1.01519 3.41443 1.38162 3.41443H6.93095C7.27854 3.416 7.61289 3.54328 7.86799 3.77114C8.12309 3.999 8.28039 4.31087 8.30884 4.6452C8.32532 4.85082 8.29014 5.05725 8.20631 5.24695C8.12247 5.43666 7.99245 5.60405 7.82727 5.73491C7.6621 5.86578 7.46665 5.95625 7.25751 5.99867C7.04837 6.04108 6.83171 6.03417 6.62593 5.97853H2.65696V6.90571C2.65696 10.3688 5.48396 13.2067 9.02835 13.3837C9.35617 13.2834 9.71149 13.3098 10.0196 13.4571C10.3277 13.6045 10.5646 13.8615 10.6804 14.1739C10.7551 14.3752 10.7785 14.5908 10.7486 14.8027C10.7188 15.0145 10.6366 15.2163 10.5091 15.3911C10.3815 15.5658 10.2122 15.7084 10.0155 15.8068C9.81889 15.9052 9.60059 15.9566 9.37907 15.9565V15.956Z" fill="white"/>
<path d="M30.6204 15.956C30.3989 15.9561 30.1806 15.9048 29.984 15.8064C29.7873 15.708 29.618 15.5654 29.4905 15.3906C29.3629 15.2158 29.2807 15.014 29.2509 14.8022C29.221 14.5904 29.2444 14.3747 29.3191 14.1734C29.4352 13.8612 29.6722 13.6047 29.9803 13.4576C30.2884 13.3105 30.6435 13.2844 30.9712 13.3847C32.6902 13.296 34.3087 12.5751 35.4938 11.3701C36.6789 10.165 37.3405 8.56759 37.3425 6.90625V5.97804H33.3736C33.1678 6.03358 32.9512 6.04041 32.7422 5.99795C32.5331 5.9555 32.3377 5.865 32.1726 5.73415C32.0075 5.6033 31.8775 5.43595 31.7937 5.2463C31.7099 5.05664 31.6748 4.85028 31.6912 4.64471C31.7195 4.31043 31.8767 3.99856 32.1317 3.77069C32.3867 3.54282 32.721 3.41552 33.0686 3.41394H38.6179C38.9843 3.41394 39.3357 3.55442 39.5948 3.80446C39.8539 4.05451 39.9995 4.39365 39.9995 4.74727V6.9042C39.9995 11.8975 35.7919 15.956 30.6204 15.956Z" fill="white"/>
<path d="M25.8239 32.8934H14.1758C15.1476 32.3059 15.9749 31.5209 16.5997 30.5929C17.2246 29.665 17.632 28.6167 17.7935 27.521C18.7883 27.9826 19.5423 28.1626 19.8962 28.2298C19.922 28.2344 19.9481 28.2375 19.9743 28.239H19.9998C20.0375 28.239 20.0751 28.235 20.112 28.2272C20.4701 28.1585 21.2188 27.9749 22.2041 27.52C22.3656 28.616 22.7733 29.6647 23.3985 30.5928C24.0238 31.5209 24.8515 32.3061 25.8239 32.8934Z" fill="white"/>
<path d="M34.9291 36.5497V40H5.07129V36.5497C5.07213 35.8522 5.35968 35.1834 5.87085 34.6902C6.38201 34.197 7.07504 33.9196 7.79786 33.9189H32.2026C32.9254 33.9196 33.6184 34.197 34.1296 34.6902C34.6407 35.1834 34.9283 35.8522 34.9291 36.5497Z" fill="white"/>
</g>
<defs>
<clipPath id="clip0_509_1270">
<rect width="40" height="40" fill="white"/>
</clipPath>
</defs>
</svg>
