<svg width="40" height="40" viewBox="0 0 40 40" fill="none" xmlns="http://www.w3.org/2000/svg">
<path d="M27.5399 16.9707C23.3759 12.8067 16.6255 12.8067 12.4615 16.9707C8.29747 21.1347 8.29747 27.8851 12.4615 32.0491C16.6255 36.2131 23.3759 36.2131 27.5399 32.0491C31.6953 27.8851 31.6953 21.1347 27.5399 16.9707ZM15.3151 35.532C13.6598 34.8251 12.1856 33.7561 11.0131 32.4198L8.31472 37.0925L11.0562 36.6614C11.289 36.6183 11.5304 36.6959 11.6856 36.8942L13.3581 38.946L15.3151 35.532ZM28.9882 32.4198C27.8071 33.7561 26.3415 34.8251 24.6777 35.532L26.6433 38.9374L28.3158 36.8856C28.471 36.6959 28.7123 36.6097 28.9451 36.6528L31.6866 37.0838L28.9882 32.4198ZM24.2466 20.264C21.9016 17.919 18.0997 17.919 15.7548 20.264C13.4098 22.6089 13.4098 26.4109 15.7548 28.7558C18.0997 31.1008 21.9016 31.1008 24.2466 28.7558C26.5915 26.4109 26.5915 22.6089 24.2466 20.264ZM19.9964 17.1862C24.0397 17.1862 27.3243 20.4623 27.3243 24.5142C27.3243 28.5575 24.0483 31.8422 19.9964 31.8422C15.9531 31.8422 12.6684 28.5661 12.6684 24.5142C12.677 20.4623 15.9531 17.1862 19.9964 17.1862ZM16.5824 24.997C16.4014 24.678 16.5048 24.2814 16.8238 24.1004C17.1428 23.9193 17.5393 24.0228 17.7204 24.3418L18.7722 26.1608L22.3758 22.5572C22.6344 22.2986 23.0569 22.2986 23.3069 22.5572C23.5655 22.8158 23.5655 23.2297 23.3069 23.4883L19.0998 27.6954C18.798 27.9972 18.2808 27.9368 18.0652 27.5575L16.5824 24.997ZM35.2127 7.5909L36.5145 10.2893L39.4802 10.6945C39.9888 10.7635 40.1699 11.3842 39.8164 11.729L37.6525 13.7981L38.187 16.7466C38.2732 17.2466 37.7473 17.6173 37.3076 17.3845L34.6696 15.9707L32.0315 17.3845C31.6004 17.6173 31.0401 17.2552 31.1608 16.7121L31.6866 13.7981L29.5227 11.729C29.1606 11.3842 29.3589 10.7635 29.8676 10.6945L32.8246 10.2893L34.1264 7.5909C34.342 7.13398 34.9885 7.1426 35.2127 7.5909ZM5.86631 7.5909L7.1681 10.2893L10.1338 10.6945C10.6338 10.7635 10.8235 11.3842 10.47 11.729L8.30609 13.7981L8.84061 16.7466C8.92682 17.2466 8.40093 17.6173 7.96987 17.3845L5.3318 15.9707L2.69373 17.3845C2.26267 17.6173 1.71092 17.2552 1.82299 16.7121L2.34888 13.7981L0.184975 11.729C-0.177114 11.3842 0.0211728 10.7635 0.52982 10.6945L3.48687 10.2893L4.78867 7.5909C5.0042 7.13398 5.65078 7.1426 5.86631 7.5909ZM20.5395 1.34057L21.8413 4.03899L24.807 4.44418C25.307 4.51315 25.4967 5.13387 25.1432 5.47872L22.9793 7.54779L23.5138 10.4962C23.6 10.9963 23.0741 11.367 22.6344 11.1342L19.9964 9.7117L17.3583 11.1256C16.9272 11.3583 16.3755 10.9963 16.4876 10.4531L17.0135 7.53917L14.8495 5.4701C14.4875 5.12525 14.6857 4.50453 15.1944 4.43556L18.1514 4.03036L19.4532 1.33195C19.6774 0.883646 20.324 0.892267 20.5395 1.34057Z" fill="#0046E2"/>
</svg>
