<svg width="40" height="40" viewBox="0 0 40 40" fill="none" xmlns="http://www.w3.org/2000/svg">
<g clip-path="url(#clip0_1130_716)">
<path d="M11.0801 25.7187H15.2117V33.982H11.0801V25.7187ZM28.2953 27.0959H27.6067C27.4241 27.0959 27.2489 27.1684 27.1198 27.2976C26.9907 27.4267 26.9181 27.6019 26.9181 27.7845C26.9181 27.9671 26.9907 28.1423 27.1198 28.2714C27.2489 28.4006 27.4241 28.4731 27.6067 28.4731C27.7894 28.4731 27.9645 28.5457 28.0936 28.6748C28.2228 28.8039 28.2953 28.9791 28.2953 29.1617C28.2953 29.3444 28.2228 29.5195 28.0936 29.6486C27.9645 29.7778 27.7894 29.8503 27.6067 29.8503C27.4241 29.8503 27.2489 29.9229 27.1198 30.052C26.9907 30.1812 26.9181 30.3563 26.9181 30.5389C26.9181 30.7216 26.9907 30.8967 27.1198 31.0259C27.2489 31.155 27.4241 31.2276 27.6067 31.2276C27.7894 31.2276 27.9645 31.3001 28.0936 31.4292C28.2228 31.5584 28.2953 31.7335 28.2953 31.9162C28.2953 32.0988 28.2228 32.2739 28.0936 32.4031C27.9645 32.5322 27.7894 32.6048 27.6067 32.6048C27.4241 32.6048 27.2489 32.6773 27.1198 32.8065C26.9907 32.9356 26.9181 33.1108 26.9181 33.2934C26.9181 33.476 26.9907 33.6512 27.1198 33.7803C27.2489 33.9094 27.4241 33.982 27.6067 33.982C27.7894 33.982 27.9645 34.0545 28.0936 34.1837C28.2228 34.3128 28.2953 34.488 28.2953 34.6706C28.2953 34.8532 28.2228 35.0284 28.0936 35.1575C27.9645 35.2867 27.7894 35.3592 27.6067 35.3592H19.6987C18.7048 35.3602 17.733 35.0659 16.9066 34.5139L16.589 34.3021V25.4393C17.4418 24.9399 18.171 24.2546 18.7222 23.4342C19.2733 22.6138 19.6321 21.6796 19.772 20.7013L19.9406 19.5208H20.7206C21.0858 19.5212 21.4358 19.6664 21.694 19.9246C21.9522 20.1828 22.0974 20.5328 22.0978 20.898V25.0296C22.0978 25.2123 22.1704 25.3874 22.2995 25.5166C22.4287 25.6457 22.6038 25.7182 22.7865 25.7182H28.2953C28.478 25.7182 28.6531 25.7908 28.7823 25.9199C28.9114 26.0491 28.9839 26.2242 28.9839 26.4069C28.9839 26.5895 28.9114 26.7646 28.7823 26.8938C28.6531 27.0229 28.478 27.0955 28.2953 27.0955V27.0959Z" fill="#0046E2"/>
<path d="M20.5407 5.36957L21.4321 8.11308H24.3166C24.4296 8.11308 24.5396 8.14883 24.6309 8.21519C24.7223 8.28156 24.7903 8.37513 24.8252 8.48252C24.8601 8.5899 24.8601 8.70557 24.8252 8.81296C24.7903 8.92034 24.7223 9.01394 24.631 9.08032L22.2972 10.776L23.1886 13.5195C23.2235 13.6269 23.2235 13.7426 23.1887 13.85C23.1538 13.9574 23.0858 14.051 22.9944 14.1174C22.903 14.1837 22.793 14.2195 22.6801 14.2194C22.5672 14.2194 22.4572 14.1836 22.3658 14.1172L20.0321 12.4215L17.6984 14.1172C17.6071 14.1836 17.4971 14.2194 17.3841 14.2194C17.2712 14.2195 17.1612 14.1837 17.0698 14.1174C16.9785 14.051 16.9105 13.9574 16.8756 13.85C16.8407 13.7426 16.8407 13.6269 16.8756 13.5195L17.767 10.7758L15.4332 9.08015C15.3419 9.01376 15.2739 8.92017 15.239 8.81278C15.2042 8.7054 15.2042 8.58972 15.2391 8.48234C15.274 8.37496 15.342 8.28138 15.4333 8.21502C15.5247 8.14865 15.6347 8.11291 15.7476 8.11291H18.6322L19.5236 5.3694C19.5585 5.26201 19.6265 5.16843 19.7179 5.10207C19.8092 5.03571 19.9193 4.99998 20.0322 5C20.1451 5.00002 20.2551 5.03579 20.3465 5.10218C20.4378 5.16857 20.5058 5.26217 20.5407 5.36957Z" fill="#0046E2"/>
<path d="M9.79163 10.3827L10.4975 12.556H12.7826C12.872 12.5561 12.9591 12.5844 13.0314 12.637C13.1038 12.6895 13.1576 12.7636 13.1852 12.8487C13.2129 12.9337 13.2129 13.0253 13.1853 13.1103C13.1577 13.1954 13.1039 13.2695 13.0316 13.3221L11.1829 14.6649L11.8887 16.8382C11.9163 16.9233 11.9163 17.0149 11.8886 17.1C11.8609 17.185 11.8071 17.2591 11.7347 17.3117C11.6623 17.3642 11.5752 17.3925 11.4858 17.3925C11.3963 17.3925 11.3092 17.3642 11.2368 17.3116L9.3881 15.9684L7.53935 17.3116C7.46699 17.3642 7.37987 17.3925 7.29046 17.3924C7.20104 17.3924 7.11393 17.3641 7.04158 17.3116C6.96924 17.259 6.91538 17.1849 6.88772 17.0999C6.86005 17.0149 6.86001 16.9233 6.88758 16.8382L7.59341 14.6649L5.74466 13.3221C5.67238 13.2695 5.61859 13.1954 5.59099 13.1103C5.5634 13.0253 5.56342 12.9337 5.59105 12.8487C5.61867 12.7637 5.67249 12.6896 5.7448 12.637C5.81711 12.5844 5.9042 12.5561 5.99359 12.556H8.27875L8.98457 10.3827C9.01189 10.2971 9.0657 10.2224 9.13823 10.1694C9.21077 10.1164 9.29827 10.0879 9.3881 10.0879C9.47793 10.0879 9.56543 10.1164 9.63796 10.1694C9.7105 10.2224 9.76431 10.2971 9.79163 10.3827Z" fill="#0046E2"/>
<path d="M4.22071 19.3346L4.92654 21.5079H7.21203C7.30143 21.508 7.38852 21.5363 7.46083 21.5889C7.53313 21.6415 7.58695 21.7156 7.61458 21.8006C7.64221 21.8856 7.64223 21.9772 7.61463 22.0622C7.58704 22.1473 7.53325 22.2214 7.46097 22.274L5.61222 23.6168L6.31804 25.7901C6.34562 25.8752 6.34557 25.9668 6.31791 26.0518C6.29025 26.1368 6.23639 26.2109 6.16404 26.2635C6.0917 26.316 6.00458 26.3443 5.91517 26.3443C5.82576 26.3444 5.73863 26.3161 5.66627 26.2636L3.81787 24.921L1.96913 26.2642C1.89677 26.3168 1.80963 26.3451 1.7202 26.3451C1.63077 26.3451 1.54363 26.3168 1.47127 26.2643C1.3989 26.2117 1.34503 26.1376 1.31737 26.0526C1.28971 25.9675 1.28967 25.8759 1.31727 25.7908L2.0231 23.6175L0.174349 22.2747C0.102058 22.2221 0.0482652 22.148 0.0206744 22.0629C-0.00691653 21.9779 -0.00689079 21.8863 0.0207477 21.8013C0.0483863 21.7162 0.10222 21.6421 0.174541 21.5896C0.246863 21.537 0.333962 21.5087 0.423368 21.5086H2.70887L3.41469 19.3353C3.44218 19.2501 3.49597 19.1757 3.56834 19.123C3.6407 19.0703 3.72791 19.0418 3.81745 19.0417C3.90699 19.0417 3.99425 19.07 4.0667 19.1226C4.13916 19.1752 4.19307 19.2494 4.22071 19.3346Z" fill="#0046E2"/>
<path d="M36.5859 19.3346L37.2918 21.508H39.5773C39.6667 21.508 39.7538 21.5364 39.8261 21.5889C39.8984 21.6415 39.9522 21.7156 39.9798 21.8006C40.0074 21.8857 40.0075 21.9773 39.9799 22.0623C39.9523 22.1473 39.8985 22.2214 39.8262 22.274L37.9775 23.6168L38.6833 25.7902C38.7109 25.8752 38.7108 25.9668 38.6831 26.0519C38.6555 26.1369 38.6016 26.211 38.5293 26.2635C38.4569 26.3161 38.3698 26.3444 38.2804 26.3444C38.191 26.3444 38.1039 26.3161 38.0315 26.2636L36.1828 24.9204L34.3344 26.2643C34.262 26.3168 34.1749 26.3452 34.0854 26.3452C33.996 26.3452 33.9089 26.3169 33.8365 26.2643C33.7641 26.2118 33.7103 26.1376 33.6826 26.0526C33.6549 25.9676 33.6549 25.8759 33.6825 25.7909L34.3883 23.6175L32.5396 22.2747C32.4673 22.2221 32.4135 22.148 32.3859 22.063C32.3583 21.9779 32.3583 21.8863 32.386 21.8013C32.4136 21.7163 32.4675 21.6422 32.5398 21.5896C32.6121 21.537 32.6992 21.5087 32.7886 21.5087H35.0738L35.7796 19.3353C35.807 19.25 35.8608 19.1755 35.9332 19.1227C36.0056 19.0698 36.0929 19.0413 36.1825 19.0413C36.2721 19.0412 36.3595 19.0695 36.432 19.1223C36.5045 19.175 36.5584 19.2493 36.5859 19.3346Z" fill="#0046E2"/>
<path d="M31.0762 10.3827L31.782 12.5561H34.0675C34.1569 12.5561 34.244 12.5845 34.3163 12.637C34.3886 12.6896 34.4424 12.7637 34.4701 12.8487C34.4977 12.9338 34.4977 13.0254 34.4701 13.1104C34.4425 13.1954 34.3887 13.2695 34.3164 13.3221L32.4677 14.6649L33.1735 16.8383C33.2011 16.9233 33.201 17.0149 33.1734 17.1C33.1457 17.185 33.0919 17.2591 33.0195 17.3116C32.9472 17.3642 32.8601 17.3925 32.7706 17.3925C32.6812 17.3925 32.5941 17.3642 32.5217 17.3117L30.673 15.9685L28.8246 17.3124C28.7522 17.3649 28.6651 17.3933 28.5757 17.3933C28.4862 17.3933 28.3991 17.365 28.3267 17.3124C28.2544 17.2599 28.2005 17.1857 28.1728 17.1007C28.1452 17.0157 28.1451 16.924 28.1727 16.839L28.8786 14.6656L27.0298 13.3228C26.9575 13.2702 26.9037 13.1961 26.8761 13.1111C26.8486 13.026 26.8486 12.9344 26.8762 12.8494C26.9039 12.7644 26.9577 12.6903 27.03 12.6377C27.1023 12.5851 27.1894 12.5568 27.2788 12.5568H29.564L30.2698 10.3834C30.2972 10.2981 30.351 10.2236 30.4234 10.1708C30.4958 10.1179 30.5831 10.0894 30.6727 10.0894C30.7624 10.0893 30.8497 10.1176 30.9222 10.1704C30.9947 10.2231 31.0486 10.2974 31.0762 10.3827Z" fill="#0046E2"/>
</g>
<defs>
<clipPath id="clip0_1130_716">
<rect width="40" height="40" fill="white"/>
</clipPath>
</defs>
</svg>
