<svg width="40" height="40" viewBox="0 0 40 40" fill="none" xmlns="http://www.w3.org/2000/svg">
<path d="M8.86435 31.3732C10.9797 31.3732 12.6945 29.6584 12.6945 27.5431C12.6945 25.4277 10.9797 23.7129 8.86435 23.7129C6.749 23.7129 5.03418 25.4277 5.03418 27.5431C5.03418 29.6584 6.749 31.3732 8.86435 31.3732Z" fill="white"/>
<path d="M31.2821 21.7901C31.4939 21.2135 31.6024 20.604 31.6024 19.9896C31.6015 17.1053 29.2626 14.768 26.3784 14.7689C25.7652 14.7691 25.1568 14.8773 24.5811 15.0886V24.89C27.2875 25.8845 30.2876 24.4966 31.2821 21.7901Z" fill="white"/>
<path d="M15.3483 10.0913L10.5068 16.4483C10.3869 16.6046 10.2191 16.7172 10.0291 16.769L1.92849 18.9813C0.794525 19.2916 0.00614525 20.3191 0 21.4947V24.4514C0.0117318 25.8899 1.18547 27.0474 2.62391 27.0391H3.26905C3.53631 23.9486 6.25844 21.6599 9.34894 21.9273C12.0687 22.1626 14.2256 24.3194 14.4608 27.0391H22.7933V8.60339H18.3505C17.1732 8.60719 16.0642 9.1568 15.3483 10.0913Z" fill="white"/>
<path d="M37.6416 18.4446C37.2523 18.4079 36.9308 18.1252 36.8445 17.7439C36.5688 16.4696 36.0582 15.2578 35.3387 14.1706C35.1198 13.842 35.1426 13.4087 35.3946 13.1046L36.894 11.2929L35.0702 9.44598L33.2663 10.9403C32.9663 11.1893 32.5395 11.2151 32.2117 11.0041C31.1178 10.2883 29.9033 9.77637 28.6271 9.49313C28.2475 9.41291 27.9637 9.0957 27.9262 8.70956L27.7003 6.36877H24.5812V13.2165C28.3221 12.2236 32.1596 14.4512 33.1525 18.1922C34.1453 21.9331 31.9177 25.7707 28.1767 26.7635C26.9986 27.0763 25.7593 27.0763 24.5811 26.7635V33.6313H27.7002L27.9265 31.2802C27.9637 30.8926 28.247 30.5734 28.6274 30.4905C29.9018 30.2147 31.1138 29.704 32.2012 28.9845C32.5298 28.7656 32.9632 28.7884 33.2671 29.0404L35.0752 30.5376L36.93 28.6829L35.4328 26.8748C35.1845 26.5742 35.1596 26.1475 35.3712 25.8202C36.0884 24.7265 36.6019 23.5121 36.8869 22.2356C36.9709 21.8551 37.2906 21.5721 37.6784 21.5348L40.0002 21.309V18.671L37.6416 18.4446Z" fill="white"/>
</svg>
