<svg width="30" height="30" viewBox="0 0 30 30" fill="none" xmlns="http://www.w3.org/2000/svg">
<g clip-path="url(#clip0_1130_356)">
<path d="M28.2089 19.5054C26.6657 17.961 24.5244 17.3068 21.7744 18.0438L11.9683 8.22766L12.0979 7.73758C12.6627 5.61848 12.0524 3.34065 10.5058 1.79401C8.93099 0.218014 6.69224 -0.360248 4.57496 0.221353C4.27302 0.304264 4.038 0.54151 3.95802 0.844264C3.87804 1.14702 3.96576 1.46881 4.18707 1.69024L6.54822 4.05139C7.23851 4.74338 7.23177 5.85163 6.54992 6.5353C5.87345 7.21358 4.73638 7.21253 4.06261 6.537L1.70099 4.1752C1.47957 3.95366 1.15683 3.86676 0.854078 3.94721C0.551265 4.0276 0.314898 4.26321 0.232281 4.56544C-0.340824 6.65946 0.222965 8.9121 1.80529 10.4944C3.34783 12.0381 5.48644 12.6947 8.23806 11.9561L18.045 21.7722C17.3131 24.5214 17.9444 26.6419 19.5083 28.2058C21.0851 29.7838 23.3249 30.3578 25.4376 29.7781C25.7395 29.6952 25.9746 29.4579 26.0547 29.1552C26.1347 28.8524 26.047 28.5306 25.8256 28.3091L23.465 25.9485C22.7747 25.2565 22.7814 24.1481 23.4633 23.4646C24.1482 22.7832 25.2827 22.794 25.9506 23.4637L28.3124 25.8248C28.5338 26.0463 28.8566 26.1332 29.1593 26.0527C29.462 25.9723 29.6984 25.7368 29.781 25.4346C30.3541 23.3409 29.7904 21.0877 28.2089 19.5054Z" fill="white"/>
<path d="M9.4068 15.6201L1.02836 23.9996C-0.342788 25.3708 -0.342788 27.6005 1.02836 28.9716C2.39952 30.3427 4.62924 30.3427 6.00034 28.9716L14.3786 20.5923L9.4068 15.6201ZM5.17463 26.244C4.83127 26.5873 4.27522 26.5873 3.93186 26.244C3.58856 25.9007 3.58856 25.3445 3.93186 25.0012L9.26272 19.6694C9.60602 19.3261 10.1623 19.3261 10.5055 19.6694C10.8488 20.0127 10.8488 20.5688 10.5055 20.9121L5.17463 26.244Z" fill="white"/>
<path d="M29.7422 1.77265L28.227 0.25747C27.9419 -0.0277061 27.4993 -0.0821982 27.1535 0.125165L22.4925 2.92143C22.0021 3.21563 21.9188 3.89222 22.3231 4.29657L22.6941 4.66747L16.7773 10.5601L19.2638 13.0465L25.1806 7.1539L25.7032 7.67661C26.1075 8.08085 26.7842 7.99765 27.0783 7.50722L29.8746 2.84626C30.0819 2.50038 30.0274 2.05782 29.7422 1.77265Z" fill="white"/>
</g>
<defs>
<clipPath id="clip0_1130_356">
<rect width="30" height="30" fill="white"/>
</clipPath>
</defs>
</svg>
