<svg width="30" height="30" viewBox="0 0 30 30" fill="none" xmlns="http://www.w3.org/2000/svg">
<g clip-path="url(#clip0_1130_346)">
<path d="M29.4231 14.4228C29.1045 14.4227 28.8462 14.6809 28.8462 14.9994V14.9997C28.8466 22.6472 22.6475 28.847 15 28.8475C7.35257 28.8479 1.15268 22.6488 1.15225 15.0014C1.15182 7.3539 7.35091 1.15408 14.9984 1.15357C18.1627 1.15336 21.2317 2.23703 23.6944 4.2241H21.2619C20.9433 4.2241 20.685 4.48241 20.685 4.80102C20.685 5.11962 20.9433 5.37794 21.2619 5.37794H25.1987C25.5168 5.37671 25.7744 5.11912 25.7756 4.80102V0.864536C25.7756 0.545931 25.5173 0.287614 25.1987 0.287614C24.8801 0.287614 24.6218 0.545931 24.6218 0.864536V3.49451C18.2676 -1.81995 8.80822 -0.977142 3.49376 5.37707C-1.48998 11.3358 -1.09947 20.1137 4.39376 25.6063C10.2516 31.464 19.749 31.464 25.6067 25.6062C28.4197 22.7932 30.0001 18.9779 30 14.9997C30.0001 14.6812 29.7419 14.4228 29.4234 14.4228C29.4233 14.4228 29.4232 14.4228 29.4231 14.4228Z" fill="white"/>
<path d="M12.8439 15.6926V14.3342L11.9531 15.6926H12.8439Z" fill="white"/>
<path d="M14.9994 3.4613C8.63715 3.4613 3.46094 8.63723 3.46094 14.9997C3.46094 21.3622 8.63715 26.5382 14.9994 26.5382C21.3616 26.5382 26.5378 21.3622 26.5378 14.9997C26.5401 12.3311 25.6129 9.74499 23.9156 7.68567H21.2613C19.69 7.70752 18.3985 6.45134 18.3767 4.8801C18.3726 4.58471 18.4145 4.29056 18.5009 4.00808C17.3691 3.64585 16.1878 3.46138 14.9994 3.4613ZM9.55381 17.1305C9.87241 17.1305 10.1307 17.3888 10.1307 17.7074C10.1307 18.0261 9.87241 18.2844 9.55381 18.2844H6.44636C6.12776 18.2844 5.86944 18.0261 5.86944 17.7075C5.86944 17.5545 5.93023 17.4077 6.03848 17.2995L8.69095 14.647C9.07222 14.2655 9.07222 13.6471 8.69095 13.2656C8.30441 12.8966 7.69605 12.8966 7.30951 13.2656C7.12576 13.4484 7.02271 13.6971 7.02328 13.9563C7.02328 14.2749 6.76497 14.5332 6.44636 14.5332C6.12776 14.5332 5.86944 14.2749 5.86944 13.9563C5.86793 13.3909 6.09271 12.8484 6.49367 12.4497C7.29848 11.6441 8.70105 11.6441 9.50643 12.4497C10.3386 13.2815 10.3388 14.6304 9.507 15.4625C9.50693 15.4626 9.50679 15.4627 9.50672 15.4628L7.83905 17.1305L9.55381 17.1305ZM14.2943 16.8466H13.9965V17.7075C13.9965 18.0261 13.7382 18.2844 13.4196 18.2844C13.101 18.2844 12.8427 18.0261 12.8427 17.7075V16.8466H10.8838C10.5651 16.8466 10.3067 16.5883 10.3067 16.2696C10.3067 16.1571 10.3396 16.0471 10.4012 15.953L12.9371 12.0858C13.1121 11.8195 13.47 11.7454 13.7363 11.9204C13.8987 12.0271 13.9965 12.2082 13.9966 12.4025V15.6928H14.2944C14.613 15.6928 14.8713 15.9511 14.8713 16.2697C14.8713 16.5883 14.6129 16.8466 14.2943 16.8466ZM20.1421 11.8256H23.5527C23.8713 11.8256 24.1295 12.0838 24.1296 12.4024C24.1296 12.5555 24.0688 12.7022 23.9606 12.8104C22.9738 13.792 22.4206 15.1275 22.4242 16.5193V17.7075C22.4242 18.0261 22.1659 18.2844 21.8473 18.2844C21.5287 18.2844 21.2704 18.0261 21.2704 17.7075V16.5193C21.267 15.2598 21.638 14.0276 22.3363 12.9794H20.1421C19.8235 12.9794 19.5652 12.7211 19.5652 12.4025C19.5652 12.0839 19.8234 11.8255 20.1421 11.8256ZM18.9258 10.5151C19.225 10.6239 19.3794 10.9547 19.2707 11.2539C19.2706 11.2541 19.2706 11.2541 19.2705 11.2543L16.3307 19.3312C16.2229 19.6309 15.8924 19.7865 15.5927 19.6786C15.293 19.5708 15.1375 19.2404 15.2453 18.9407C15.2457 18.9394 15.2462 18.9381 15.2467 18.9369L18.1865 10.86C18.2958 10.5608 18.6264 10.4066 18.9258 10.5151Z" fill="white"/>
</g>
<defs>
<clipPath id="clip0_1130_346">
<rect width="30" height="30" fill="white"/>
</clipPath>
</defs>
</svg>
