<svg width="25" height="25" viewBox="0 0 25 25" fill="none" xmlns="http://www.w3.org/2000/svg">
<g clip-path="url(#clip0_1302_1441)">
<path d="M18.0851 19.8267C18.3834 19.1438 18.8546 18.5717 19.4271 18.1341C19.2357 18.1574 19.0469 18.172 18.8615 18.172C17.8941 18.172 17.0098 17.8526 16.2554 17.2197C15.1431 18.207 13.7135 18.8386 12.1387 18.9416C12.1723 19.2572 12.2503 19.5516 12.3628 19.8267L18.0851 19.8267Z" fill="#0046E2"/>
<path d="M17.7197 12.0664C17.7197 8.73818 15.0123 6.03076 11.6841 6.03076C8.35586 6.03076 5.64844 8.73818 5.64844 12.0664C5.64844 15.3946 8.35586 18.102 11.6841 18.102C15.0123 18.102 17.7197 15.3946 17.7197 12.0664ZM6.9418 12.0664C6.9418 9.44738 9.06506 7.32412 11.6841 7.32412C14.3031 7.32412 16.4263 9.44738 16.4263 12.0664C16.4263 14.6854 14.3031 16.8087 11.6841 16.8087C9.06506 16.8087 6.9418 14.6854 6.9418 12.0664Z" fill="#0046E2"/>
<path d="M11.4476 19.8266C11.3605 19.5455 11.3014 19.2514 11.2747 18.9436C9.69729 18.8505 8.2634 18.2284 7.14551 17.248C6.5536 17.9818 6.33544 18.847 6.48893 19.8266H11.4476Z" fill="#0046E2"/>
<path d="M23.019 6.51501L22.3362 7.1979L21.7266 6.58831L22.6392 5.67565C22.4875 5.37645 22.3215 5.0863 22.1426 4.80437L21.0428 5.90416L20.4332 5.29457L21.6425 4.08486C21.4464 3.82704 21.2386 3.57874 21.0191 3.34076L19.7495 4.61084L19.1399 4.00125L20.4095 2.73117C20.1715 2.51217 19.9232 2.30437 19.6654 2.10776L18.4561 3.31748L17.8465 2.70788L18.9463 1.60809C18.6648 1.42917 18.3747 1.26322 18.0755 1.11145L17.1628 2.02411L16.5532 1.41452L17.2361 0.731637C16.1052 0.28021 14.8769 0.0224387 13.5918 0L23.7511 10.1588C23.7287 8.87411 23.4708 7.64583 23.019 6.51501Z" fill="#0046E2"/>
<path d="M4.80885 12.521C3.11067 12.7064 2.25534 14.0368 1.82812 15.2172C2.16525 16.2739 2.67398 17.2724 3.34566 18.1859C4.28939 18.3894 5.12274 18.98 5.61378 19.8268H5.61462C5.46071 18.6287 5.77717 17.5431 6.53461 16.6404C5.54562 15.528 4.91275 14.0976 4.80885 12.521Z" fill="#0046E2"/>
<path d="M23.4908 11.1175L12.6335 0.260254C12.3632 0.464602 12.1727 0.768556 12.127 1.12076L22.6302 11.6245C22.9825 11.5788 23.2864 11.3878 23.4908 11.1175Z" fill="#0046E2"/>
<path d="M12.0966 5.18987C15.5571 5.39594 18.3331 8.15809 18.5599 11.6135C19.3109 11.5329 19.9545 11.225 20.48 10.6939L11.5107 1.72412C10.9537 1.73317 10.4074 1.78706 9.875 1.88149C11.2024 2.64411 11.9724 3.78271 12.0966 5.18987Z" fill="#0046E2"/>
<path d="M20.256 21.551L21.3489 19.3648L24.9557 19.7653C24.334 18.7324 23.2381 18.1021 22.0314 18.1021C20.5755 18.1021 19.2705 19.0264 18.7834 20.4012L18.6821 20.6887H5.08247L4.96565 20.443C4.53843 19.545 3.62227 18.9643 2.6316 18.9643C1.20504 18.9643 0.0449219 20.1244 0.0449219 21.551C0.0449219 22.9775 1.20504 24.1376 2.6316 24.1376C3.62232 24.1376 4.53843 23.5573 4.96565 22.6589L5.08247 22.4132H18.6816L18.7829 22.7008C19.2701 24.076 20.5751 24.9999 22.0309 24.9999C23.2376 24.9999 24.3335 24.3696 24.9552 23.3367L21.3485 23.7372L20.256 21.551ZM2.63114 22.8443C1.91676 22.8443 1.33778 22.2653 1.33778 21.551C1.33778 20.8366 1.91676 20.2576 2.63114 20.2576C3.34552 20.2576 3.9245 20.8366 3.9245 21.551C3.9245 22.2653 3.34552 22.8443 2.63114 22.8443Z" fill="#0046E2"/>
<path d="M7.1145 6.91385C8.2246 5.92831 9.65074 5.29716 11.2226 5.19196C11.0756 3.80808 10.1737 2.80702 8.52898 2.21338C6.35529 2.9118 4.49372 4.31032 3.20898 6.14302C4.68472 5.74594 6.03323 6.0072 7.1145 6.91385Z" fill="#0046E2"/>
<path d="M4.80751 11.6546C4.90106 10.0811 5.521 8.64975 6.49837 7.53316C5.41715 6.65885 4.07247 6.5877 2.49115 7.32881C1.7561 8.74936 1.33789 10.3596 1.33789 12.0664C1.33789 12.6803 1.39523 13.2847 1.49913 13.877C2.26137 12.5492 3.40036 11.7788 4.80751 11.6546Z" fill="#0046E2"/>
<path d="M22.0256 12.2387L21.09 11.3032C20.402 12.0012 19.554 12.3927 18.562 12.4771C18.4684 14.0511 17.8485 15.4829 16.8711 16.5995C17.9532 17.4746 19.2978 17.5458 20.8796 16.8038C21.6061 15.3954 21.9988 13.8386 22.0256 12.2387Z" fill="#0046E2"/>
<path d="M12.2383 13.2308L13.5338 14.5263L14.1434 13.9167L12.8479 12.6212C12.9285 12.4526 12.9772 12.2659 12.9772 12.0668C12.9772 11.8676 12.9285 11.6809 12.8479 11.5124L14.1442 10.216L13.5346 9.60642L12.2383 10.9028C12.0697 10.8222 11.8831 10.7734 11.6839 10.7734C11.4847 10.7734 11.298 10.8222 11.1295 10.9028L9.83225 9.60596L9.22266 10.2155L10.5199 11.5128C10.4393 11.6813 10.3906 11.868 10.3906 12.0672C10.3906 12.2664 10.4393 12.453 10.5199 12.6216L9.22354 13.9179L9.83313 14.5275L11.1295 13.2312C11.298 13.3118 11.4847 13.3605 11.6839 13.3605C11.8831 13.3601 12.0697 13.3114 12.2383 13.2308Z" fill="#0046E2"/>
</g>
<defs>
<clipPath id="clip0_1302_1441">
<rect width="25" height="25" fill="white"/>
</clipPath>
</defs>
</svg>
