<svg width="25" height="25" viewBox="0 0 25 25" fill="none" xmlns="http://www.w3.org/2000/svg">
<g clip-path="url(#clip0_1302_1481)">
<path d="M3.79248 22.3101C4.40167 22.3101 4.89551 21.8162 4.89551 21.207C4.89551 20.5978 4.40167 20.104 3.79248 20.104C3.1833 20.104 2.68945 20.5978 2.68945 21.207C2.68945 21.8162 3.1833 22.3101 3.79248 22.3101Z" fill="#0046E2"/>
<path d="M1.10938 18.524C0.578726 19.0547 0.217351 19.7308 0.0709502 20.4669C-0.0754507 21.2029 -0.000302356 21.9658 0.286892 22.6592C0.574087 23.3525 1.06043 23.9451 1.68442 24.362C2.30841 24.779 3.04202 25.0015 3.79248 25.0015C4.54295 25.0015 5.27656 24.779 5.90055 24.362C6.52454 23.9451 7.01088 23.3525 7.29807 22.6592C7.58527 21.9658 7.66041 21.2029 7.51401 20.4669C7.36761 19.7308 7.00624 19.0547 6.47559 18.524C5.76355 17.8133 4.79857 17.4141 3.79248 17.4141C2.7864 17.4141 1.82142 17.8133 1.10938 18.524ZM5.09033 22.505C4.83364 22.7617 4.5066 22.9365 4.15055 23.0073C3.79451 23.0782 3.42546 23.0418 3.09008 22.9029C2.75469 22.764 2.46803 22.5287 2.26635 22.2269C2.06467 21.925 1.95702 21.5702 1.95702 21.2072C1.95702 20.8441 2.06467 20.4893 2.26635 20.1874C2.46803 19.8856 2.75469 19.6503 3.09008 19.5114C3.42546 19.3725 3.79451 19.3362 4.15055 19.407C4.5066 19.4778 4.83364 19.6526 5.09033 19.9093C5.43407 20.2538 5.62711 20.7205 5.62711 21.2072C5.62711 21.6938 5.43407 22.1605 5.09033 22.505Z" fill="#0046E2"/>
<path d="M24.6064 2.40243L22.5977 0.393645C22.345 0.141273 22.0026 -0.000488281 21.6455 -0.000488281C21.2884 -0.000488281 20.946 0.141273 20.6934 0.393645L19.6191 1.46786L23.5313 5.37997L24.6055 4.30575C24.8577 4.05332 24.9994 3.71113 24.9996 3.3543C24.9998 2.99746 24.8584 2.65513 24.6064 2.40243Z" fill="#0046E2"/>
<path d="M15.085 6.62646L13.8711 7.84033L13.0898 7.05908C12.9648 6.93404 12.8164 6.83486 12.653 6.76719C12.4896 6.69952 12.3145 6.66469 12.1377 6.66469C11.9609 6.66469 11.7858 6.69952 11.6224 6.76719C11.459 6.83486 11.3106 6.93404 11.1855 7.05908C11.0605 7.18412 10.9613 7.33256 10.8937 7.49593C10.826 7.6593 10.7912 7.8344 10.7912 8.01123C10.7912 8.18806 10.826 8.36316 10.8937 8.52653C10.9613 8.6899 11.0605 8.83834 11.1855 8.96338L11.9668 9.74463L11.0996 10.6118L10.3184 9.83057C10.1933 9.70553 10.0449 9.60634 9.88151 9.53867C9.71814 9.471 9.54304 9.43617 9.36621 9.43617C9.18938 9.43617 9.01428 9.471 8.85091 9.53867C8.68754 9.60634 8.5391 9.70553 8.41406 9.83057C8.28902 9.9556 8.18984 10.104 8.12217 10.2674C8.0545 10.4308 8.01967 10.6059 8.01967 10.7827C8.01967 10.9595 8.0545 11.1346 8.12217 11.298C8.18984 11.4614 8.28902 11.6098 8.41406 11.7349L9.19531 12.5161L8.32764 13.3838L7.54639 12.6025C7.29386 12.35 6.95136 12.2081 6.59424 12.2081C6.23711 12.2081 5.89462 12.35 5.64209 12.6025C5.38956 12.8551 5.2477 13.1976 5.2477 13.5547C5.2477 13.7315 5.28253 13.9066 5.3502 14.07C5.41787 14.2334 5.51705 14.3818 5.64209 14.5068L6.42334 15.2881L4.89062 16.8208C5.68549 17.0192 6.41143 17.43 6.99072 18.0093C7.57001 18.5886 7.98083 19.3145 8.1792 20.1094L9.7168 18.5732L10.498 19.3545C10.6231 19.4795 10.7715 19.5787 10.9349 19.6464C11.0983 19.7141 11.2734 19.7489 11.4502 19.7489C11.627 19.7489 11.8021 19.7141 11.9655 19.6464C12.1289 19.5787 12.2773 19.4795 12.4023 19.3545C12.5274 19.2295 12.6266 19.081 12.6942 18.9176C12.7619 18.7543 12.7967 18.5792 12.7967 18.4023C12.7967 18.2255 12.7619 18.0504 12.6942 17.887C12.6266 17.7237 12.5274 17.5752 12.4023 17.4502L11.6211 16.6689L12.4888 15.8013L13.27 16.5825C13.5225 16.835 13.865 16.9769 14.2222 16.9769C14.5793 16.9769 14.9218 16.835 15.1743 16.5825C15.4268 16.33 15.5687 15.9875 15.5687 15.6304C15.5687 15.2732 15.4268 14.9307 15.1743 14.6782L14.3931 13.897L15.2603 13.0298L16.0415 13.811C16.294 14.0636 16.6365 14.2054 16.9937 14.2054C17.3508 14.2054 17.6933 14.0636 17.9458 13.811C18.1983 13.5585 18.3402 13.216 18.3402 12.8589C18.3402 12.5018 18.1983 12.1593 17.9458 11.9067L17.1646 11.1255L18.3784 9.91162L15.085 6.62646Z" fill="#0046E2"/>
<path d="M18.6328 1.51913C18.3802 1.26676 18.0377 1.125 17.6807 1.125C17.3236 1.125 16.9811 1.26676 16.7285 1.51913L14.3071 3.94345C14.1564 4.09375 14.0437 4.2779 13.9785 4.48056L20.5215 11.0235C20.7241 10.9584 20.9083 10.8457 21.0586 10.6949L23.4829 8.2706C23.7353 8.01799 23.877 7.67552 23.877 7.31845C23.877 6.96138 23.7353 6.61891 23.4829 6.3663L18.6328 1.51913Z" fill="#0046E2"/>
</g>
<defs>
<clipPath id="clip0_1302_1481">
<rect width="25" height="25" fill="white"/>
</clipPath>
</defs>
</svg>
