<svg width="25" height="25" viewBox="0 0 25 25" fill="none" xmlns="http://www.w3.org/2000/svg">
<path d="M11.4521 23.6837C11.0214 23.7173 10.6502 23.7106 10.5656 23.6712C10.4964 23.6385 10.6454 23.4827 10.831 23.3298C11.0464 23.1519 10.8502 22.9702 10.7464 22.8779C10.3983 22.5683 10.0675 22.2317 9.75597 21.8731C9.67904 21.7846 9.49827 21.6048 9.15308 21.6106C8.60501 21.6202 7.91174 21.6442 7.82424 21.6029C7.76078 21.5731 8.12616 21.2683 8.48289 20.9817C8.79251 20.7327 8.66751 20.4125 8.57808 20.2654C8.29058 19.7933 8.03193 19.2962 7.8002 18.7769C7.75212 18.6692 7.60597 18.4644 7.27424 18.4587C6.75405 18.451 6.1627 18.4865 6.08193 18.449C6.01847 18.4183 6.47712 17.9856 6.93962 17.6019C7.04635 17.5135 7.21558 17.3077 7.11366 16.8904C6.96847 16.2894 6.80693 15.6827 6.70789 15.0519C6.68385 14.8981 6.55404 14.5885 6.20885 14.5971C5.73674 14.6115 5.25981 14.6173 5.1877 14.5837C5.1252 14.5538 5.59731 14.1308 6.11654 13.7442C6.25693 13.6413 6.47808 13.5654 6.51943 13.025C6.53097 12.8721 6.50981 12.7183 6.50981 12.5635C6.50981 12.0433 6.52808 11.5308 6.5877 11.0279C6.64347 10.5615 6.3627 10.4673 6.20789 10.475C5.73193 10.499 5.24924 10.5231 5.17904 10.4894C5.10981 10.4567 5.79731 9.96154 6.46174 9.55289C6.59539 9.47212 6.82424 9.31538 6.94924 8.89423C7.12231 8.3125 7.26943 7.73077 7.48578 7.18173C7.68097 6.68558 7.28193 6.60288 7.08001 6.60673C6.56751 6.61635 6.1502 6.64327 6.06847 6.60577C5.99154 6.56923 6.87039 6.0625 7.68962 5.72212C7.88001 5.64231 8.22712 5.48846 8.55308 4.96731C8.79924 4.575 9.07039 4.20481 9.3252 3.83077C9.57616 3.46346 9.29924 3.41442 9.13289 3.41442C8.50212 3.41442 7.95308 3.46346 7.85789 3.41731C7.76943 3.37692 9.16462 2.83942 10.0031 2.62788C10.1858 2.58173 10.4406 2.51442 10.7762 2.23846C11.0617 2.00288 11.3319 1.75 11.631 1.54038C11.8964 1.35385 11.681 1.31538 11.5598 1.31346C10.8637 1.30385 10.23 1.36442 10.1262 1.31538C10.0262 1.26827 11.904 0.928846 12.6425 0.877885C13.2915 0.508654 14.3983 0.206731 15.1146 0C14.929 0 14.7723 0.000961539 14.7117 0.00576923H10.5444C10.3098 0.0355769 9.30693 -0.00769231 9.1252 0.00576923C8.65308 0.0567308 8.32712 0.104808 7.87424 0.286538C7.57616 0.406731 7.47904 0.790385 7.68193 0.872115C7.90693 0.9625 8.76366 1.25962 8.65885 1.3125C8.57231 1.35577 7.43962 1.3125 6.72904 1.26346C6.44635 1.24327 6.05404 1.21827 5.88866 1.33846C5.46751 1.64423 5.59828 1.57788 5.20597 1.97308C5.0502 2.12981 5.01078 2.46827 5.23578 2.57404C5.45212 2.67404 6.50116 3.375 6.36078 3.44519C6.24058 3.50577 4.77808 3.60865 4.42039 3.575C4.06655 3.54231 3.88001 3.5625 3.74154 3.75962C3.39828 4.24904 3.36174 4.42212 3.07808 4.99615C2.96558 5.22308 2.9752 5.63077 3.14635 5.71827C3.31751 5.80481 4.1252 6.18942 4.61751 6.6C4.06174 6.55481 2.98674 6.78077 2.74635 6.78077C2.50597 6.78077 2.31462 6.79327 2.23001 7.04712C2.01366 7.69135 1.97424 7.93558 1.83578 8.61539C1.78193 8.8875 1.88001 9.16346 2.09058 9.28365C2.30116 9.40385 3.89443 10.4837 3.73193 10.475C3.46174 10.4596 2.06654 10.7913 1.85597 10.7952C1.64539 10.799 1.50789 10.9635 1.48481 11.2404C1.44154 11.7587 1.46174 11.7587 1.46174 12.2885C1.4627 12.4788 1.46558 12.6692 1.47135 12.8567C1.48001 13.1327 1.72712 13.4327 1.95789 13.5413C2.27328 13.6913 3.89155 14.4865 3.74731 14.5596C3.62808 14.6192 2.16462 14.8 2.01462 14.8048C1.67424 14.8154 1.63289 15.1558 1.67231 15.4337C1.77231 16.1308 1.78001 16.2606 1.96078 16.9269C2.01366 17.1269 2.18962 17.3077 2.37039 17.3683C2.55116 17.4288 4.83866 18.3625 4.69347 18.4356C4.57328 18.4962 3.20212 18.7577 2.98578 18.7673C2.69828 18.7827 2.72808 19.1913 2.85981 19.4885C3.12424 20.0865 3.0002 19.9038 3.31847 20.4365C3.38385 20.549 3.67808 20.7269 3.76943 20.7462C3.9502 20.7865 6.55212 21.5173 6.40693 21.5894C6.28674 21.65 4.89635 21.7173 4.63866 21.7317C4.38097 21.7462 4.41462 22.1317 4.56174 22.3077C4.93578 22.7529 4.84731 22.6779 5.25212 23.0298C5.48193 23.2298 6.01751 23.2135 6.05308 23.2404C6.58866 23.325 8.84155 23.624 8.70501 23.6933C8.58481 23.7538 7.75404 23.8452 6.96174 23.9394C6.71078 23.9279 6.9127 24.2769 7.09251 24.3654C7.54058 24.5913 8.00404 24.7596 8.47231 24.8654C8.49058 24.8692 8.50693 24.8712 8.52328 24.8712C8.69058 24.8712 9.73866 24.9712 9.92327 24.9712C10.1608 24.9712 13.3771 24.9885 14.9512 24.9962C14.0339 24.7308 12.8098 24.3269 11.9617 23.8048C11.8906 23.7615 11.7079 23.6625 11.4521 23.6837Z" fill="#0046E2"/>
<path d="M23.5093 11.3442C23.492 11.0606 23.3459 10.8577 23.1391 10.876C23.1343 10.8769 23.1295 10.8875 23.1237 10.8885C23.0939 10.5423 23.0574 10.199 23.0055 9.86154C23.0112 9.86058 23.0151 9.86154 23.0189 9.85961C23.1997 9.78558 23.3084 9.50192 23.2593 9.22692C23.1362 8.53846 22.9709 7.85865 22.7709 7.20865C22.6939 6.94808 22.2824 6.84038 22.2824 6.84038C22.2824 6.84038 22.0882 6.36346 21.966 6.07115C21.9699 6.06635 21.9757 6.06827 21.9795 6.06442C22.1334 5.90192 22.1728 5.58077 22.0651 5.34712C21.7959 4.75961 21.4891 4.20385 21.1574 3.69423C21.0257 3.49231 20.5295 3.51346 20.5257 3.52115C20.4805 3.44615 20.3237 3.24712 20.142 3.03077C20.1468 3.02212 20.1526 3.02692 20.1564 3.01827C20.267 2.78654 20.2305 2.46346 20.0785 2.29808C19.691 1.88077 19.2805 1.51346 18.8564 1.20481C18.6853 1.08269 17.943 1.19135 17.943 1.19135L17.7535 1.09519C17.7564 1.0875 17.7612 1.08558 17.7622 1.07981C17.8141 0.805769 17.7084 0.520192 17.5285 0.442308C17.0737 0.249038 16.6055 0.113462 16.1324 0.0413462C15.9949 0.0144231 15.5035 0.00192308 15.1305 0C14.4045 0.25 13.7055 0.593269 13.0439 1.02404C13.6824 1.1 12.2391 2.11538 12.3497 1.52019C11.9324 1.84519 11.5353 2.20769 11.1603 2.60577C11.7718 2.66442 10.6343 4.10673 10.4478 3.43846C9.96797 4.05962 9.5372 4.74615 9.16316 5.49327C9.71893 5.32692 9.04874 7.15577 8.65643 6.64038C8.34585 7.43558 8.09874 8.28846 7.92181 9.19519C8.43912 9.00481 8.19489 10.6712 7.72855 10.4317C7.64778 11.1154 7.60547 11.8269 7.60547 12.5615C7.60547 12.7144 7.60739 12.8663 7.61124 13.0173C8.11412 12.8058 8.35835 14.3298 7.68912 14.3433C7.77855 15.2615 7.93624 16.1308 8.15355 16.9471C8.45932 16.6462 9.25258 17.9683 8.54105 18.1779C8.80739 18.9067 9.12566 19.5875 9.48912 20.2173C9.67758 19.8567 10.6334 21.0356 10.0882 21.1538C10.5112 21.7538 10.9805 22.2962 11.4843 22.7808C11.568 22.4375 12.5641 23.1894 12.1737 23.3894C13.0343 24.0837 13.9776 24.6212 14.9718 24.9962C15.4747 24.9981 15.8074 25 15.8074 25C16.3141 24.9817 16.5593 24.925 16.7699 24.8644C16.9545 24.8106 17.3218 24.2385 17.3218 24.2385C17.3218 24.2385 17.9872 24.2067 18.1247 24.2067C18.166 24.2067 18.2074 24.1952 18.2478 24.1721C18.6862 23.9154 19.1141 23.599 19.5218 23.2298C19.6834 23.0846 19.7353 22.7673 19.6382 22.5231C19.6353 22.5173 19.6305 22.5173 19.6295 22.5115C19.8209 22.3202 19.8593 22.2731 20.042 22.0577C20.0439 22.0635 20.3535 22.0962 20.4497 22.0962C20.5276 22.0962 20.6084 22.0548 20.6709 21.9712C21.0295 21.5048 21.3641 20.9885 21.6641 20.4337C21.7824 20.2135 21.7632 19.8904 21.618 19.7087C21.6122 19.7019 21.6055 19.7058 21.6007 19.7C21.7382 19.4212 21.8382 19.2346 21.9622 18.9365C21.966 18.9413 22.1151 18.9231 22.1728 18.9231C22.291 18.9231 22.4035 18.8288 22.468 18.6625C22.7026 18.0413 22.9007 17.3846 23.0612 16.7106C23.1247 16.4423 23.0314 16.1471 22.8545 16.05C22.8516 16.049 22.8487 16.0519 22.8459 16.051C22.9141 15.7202 22.9689 15.3827 23.018 15.0413C23.0228 15.0423 23.0237 15.05 23.0276 15.051C23.0478 15.0558 23.068 15.0577 23.0862 15.0577C23.2507 15.0577 23.3939 14.8798 23.4228 14.6298C23.5026 13.9269 23.5439 13.2058 23.5439 12.4865C23.543 12.1019 23.5314 11.7202 23.5093 11.3442ZM15.8535 20.4452C13.2334 20.4452 11.1093 16.8885 11.1093 12.5029C11.1093 8.11538 13.2334 4.55962 15.8535 4.55962C18.4747 4.55962 20.5968 8.11538 20.5968 12.5029C20.5968 16.8875 18.4747 20.4452 15.8535 20.4452Z" fill="#0046E2"/>
</svg>
