<svg width="25" height="25" viewBox="0 0 25 25" fill="none" xmlns="http://www.w3.org/2000/svg">
<path d="M12.5 1.17188C9.79853 1.17087 7.1857 2.13569 5.13318 3.89214C3.08066 5.6486 1.7237 8.08097 1.30726 10.7502C0.890814 13.4193 1.44233 16.1495 2.86224 18.4477C4.28215 20.7459 6.4769 22.4608 9.05028 23.2828L8.8688 24.4562L12.5 23.0469L9.46423 20.6064L9.29181 21.7212C7.59909 21.1322 6.10115 20.0886 4.96207 18.7049C3.823 17.3211 3.08674 15.6506 2.83395 13.8762C2.58116 12.1019 2.8216 10.2922 3.52892 8.64536C4.23624 6.99857 5.38316 5.57821 6.84402 4.53989C8.30489 3.50157 10.0234 2.88535 11.8111 2.75873C13.5989 2.63211 15.3871 2.99998 16.9797 3.82204C18.5724 4.6441 19.908 5.88864 20.8404 7.41931C21.7727 8.94998 22.2658 10.7077 22.2656 12.5H23.8281C23.8247 9.49666 22.6301 6.61731 20.5064 4.49362C18.3827 2.36993 15.5034 1.17533 12.5 1.17188Z" fill="#0046E2"/>
<path d="M12.5 14.4531C13.5787 14.4531 14.4531 13.5787 14.4531 12.5C14.4531 11.4213 13.5787 10.5469 12.5 10.5469C11.4213 10.5469 10.5469 11.4213 10.5469 12.5C10.5469 13.5787 11.4213 14.4531 12.5 14.4531Z" fill="#0046E2"/>
<path d="M12.4998 9.76552C13.0403 9.76503 13.5687 9.92569 14.0174 10.227C14.1809 9.78907 14.3954 9.37196 14.6565 8.98427C15.4658 7.81239 15.8565 7.4413 15.8565 6.64052C15.8565 5.74411 14.6846 4.68739 12.7315 4.68739C12.1721 4.65606 11.613 4.75306 11.0969 4.97099C10.5808 5.18891 10.1214 5.52199 9.75373 5.94474C9.46905 6.25498 9.27469 6.63721 9.19172 7.05002C9.10875 7.46282 9.14033 7.89047 9.28303 8.28661L10.2583 10.9385C10.5097 10.5768 10.8448 10.2811 11.2351 10.0769C11.6254 9.87264 12.0593 9.76581 12.4998 9.76552Z" fill="#0046E2"/>
<path d="M9.76476 12.5001C9.76476 12.44 9.76992 12.3812 9.77378 12.322C9.31221 12.3996 8.8431 12.4224 8.37617 12.3901C6.95663 12.2752 6.43992 12.1225 5.74644 12.5229C4.97015 12.9711 4.64097 14.5144 5.61753 16.2059C5.87007 16.706 6.23364 17.1417 6.68044 17.4797C7.12723 17.8177 7.64541 18.0491 8.19535 18.1561C8.60637 18.2475 9.03457 18.2246 9.43355 18.0901C9.83252 17.9555 10.1871 17.7143 10.4588 17.3927L12.2674 15.2228C11.5853 15.1642 10.9499 14.8521 10.4866 14.3481C10.0233 13.8441 9.76578 13.1847 9.76476 12.5001Z" fill="#0046E2"/>
<path d="M19.5507 13.3993C19.4243 12.9977 19.1904 12.6382 18.8744 12.36C18.5583 12.0818 18.1722 11.8953 17.7577 11.8209L14.9726 11.3394C15.2793 11.9863 15.3186 12.728 15.0821 13.4038C14.8456 14.0796 14.3522 14.6348 13.709 14.9493C14.007 15.3103 14.2613 15.7051 14.4668 16.1257C15.077 17.4125 15.2031 17.9363 15.8965 18.3367C16.6728 18.7849 18.1738 18.2983 19.1504 16.6069C19.4573 16.1382 19.6529 15.6054 19.7223 15.0495C19.7916 14.4936 19.733 13.9291 19.5507 13.3993Z" fill="#0046E2"/>
</svg>
