<svg width="25" height="25" viewBox="0 0 25 25" fill="none" xmlns="http://www.w3.org/2000/svg">
<path d="M16.3497 18.8828L15.9727 21.3376L17.4116 22.8296C17.6372 23.0663 18.0066 23.0663 18.2349 22.8296L18.7837 22.2605C19.012 22.0238 19.012 21.6408 18.7837 21.4067L16.3497 18.8828Z" fill="#0046E2"/>
<path d="M18.0018 16.5928L16.8272 17.2151C16.604 17.7983 16.6004 17.7972 16.5527 17.9385L19.3407 20.8295C19.5664 21.0661 19.9357 21.0661 20.164 20.8295L20.7129 20.2603C20.9411 20.0236 20.9411 19.6406 20.7129 19.4066L18.0018 16.5928Z" fill="#0046E2"/>
<path d="M20.5542 15.2393L18.7383 16.2046L21.2698 18.8297C21.498 19.0664 21.8648 19.0664 22.0931 18.8297L22.6419 18.2578C22.8702 18.0238 22.8702 17.6408 22.6419 17.4041L20.5542 15.2393Z" fill="#0046E2"/>
<path d="M5.2552 21.4067C5.02691 21.6408 5.02691 22.0238 5.2552 22.2605L5.80408 22.8296C6.03237 23.0663 6.40169 23.0663 6.62738 22.8296L8.06629 21.3376L7.68927 18.8828L5.2552 21.4067Z" fill="#0046E2"/>
<path d="M6.34686 16.271L3.32548 19.4066C3.09724 19.6407 3.09724 20.0237 3.32548 20.2604L3.87436 20.8296C4.10265 21.0662 4.46942 21.0662 4.69766 20.8296L7.48821 17.9359C7.26761 17.2657 6.86496 16.6913 6.34686 16.271Z" fill="#0046E2"/>
<path d="M4.20372 15.5132H3.22134L1.39778 17.4041C1.16949 17.6408 1.16949 18.0238 1.39778 18.2578L1.94666 18.8297C2.17495 19.0664 2.54172 19.0664 2.76996 18.8297L5.65541 15.8376C5.21168 15.6276 4.71922 15.5132 4.20372 15.5132Z" fill="#0046E2"/>
<path d="M9.66775 2.21544H14.3691C15.0487 2.21544 15.6823 2.59042 16.0362 3.18353L17.1852 1.4761V1.44946C17.1852 0.648915 16.5594 0 15.7874 0H8.24938C7.47736 0 6.85156 0.648915 6.85156 1.44946V1.4761L8.00315 3.18617C8.35198 2.59047 8.98808 2.21544 9.66775 2.21544Z" fill="#0046E2"/>
<path d="M2.13056 4.12501C3.56353 3.83547 4.10006 4.37103 6.36511 5.64096C6.67801 5.60375 6.95502 5.39895 7.0935 5.10372L7.73984 3.72344L5.91368 1.01066C5.58284 0.518614 4.92876 0.398956 4.45429 0.742018L2.22032 2.35907C1.74585 2.70213 1.62786 3.38033 1.96125 3.87237L2.13056 4.12501Z" fill="#0046E2"/>
<path d="M16.9452 5.10369C17.0991 5.43348 17.4274 5.64891 17.7788 5.64891H20.8822L22.0774 3.87235C22.4109 3.3803 22.2929 2.7021 21.8183 2.35904L19.5844 0.74204C19.1099 0.398928 18.4558 0.518636 18.125 1.01068L16.2988 3.72077L16.9452 5.10369Z" fill="#0046E2"/>
<path d="M20.9254 6.17992H17.7807C17.2282 6.17992 16.7242 5.85251 16.4832 5.33693L15.6672 3.59152C15.4262 3.07599 14.9223 2.74854 14.3698 2.74854H9.67006C9.11755 2.74854 8.61362 3.07594 8.37259 3.59152L7.55659 5.33698C7.42718 5.61381 7.2205 5.8338 6.97266 5.98061C8.26028 6.7019 10.1031 7.73317 12.7386 9.20617L21.0121 7.47409C21.4131 7.29851 21.8359 7.20971 22.2695 7.20971C22.2783 7.20971 22.2868 7.21103 22.2956 7.21108C22.1072 6.61264 21.5654 6.17992 20.9254 6.17992ZM13.9641 5.50686C13.9641 5.80524 13.7309 6.04709 13.4431 6.04709H10.5968C10.309 6.04709 10.0758 5.80524 10.0758 5.50686V4.63067C10.0758 4.33229 10.309 4.09044 10.5968 4.09044H13.4431C13.7309 4.09044 13.9641 4.33229 13.9641 4.63067V5.50686Z" fill="#0046E2"/>
<path d="M19.02 10.5741C19.02 10.3019 19.052 10.0323 19.1146 9.77051L15.0625 10.619C16.0889 11.5289 16.7076 12.8711 16.7076 14.3105C16.7076 14.6237 16.6793 14.932 16.6227 15.2338L20.3244 13.2713C19.5174 12.6498 19.02 11.6624 19.02 10.5741Z" fill="#0046E2"/>
<path d="M9.24688 18.2205C-0.488413 8.87624 13.5692 22.442 1.67188 10.9448V13.4871C1.67188 14.3128 2.31743 14.9823 3.11377 14.9823H4.20241C6.16696 14.9823 7.83955 16.4624 8.14597 18.4772L8.95452 23.7399C9.06604 24.4657 9.66968 24.9998 10.3785 24.9998H13.6601C14.3688 24.9998 14.9725 24.4657 15.084 23.7399C15.9353 18.421 15.8324 18.3638 16.133 17.5844C15.3461 17.8094 12.3968 20.6301 9.24688 18.2205ZM12.0204 23.5457C11.2076 23.5457 10.5484 22.8645 10.5484 22.0217C10.5484 21.1789 11.2076 20.4976 12.0204 20.4976C12.8331 20.4976 13.4901 21.1788 13.4901 22.0217C13.4901 22.8645 12.8332 23.5457 12.0204 23.5457Z" fill="#0046E2"/>
<path d="M3.91016 10.5637L7.34763 13.8874C7.49542 12.1052 8.57044 10.5723 10.1329 9.86504L5.97779 7.54443C5.93324 8.92431 5.09489 10.091 3.91016 10.5637Z" fill="#0046E2"/>
<path d="M25 10.5735C25 9.01184 23.7747 7.74126 22.2686 7.74126C21.876 7.74126 21.5032 7.82899 21.1653 7.98403L12.6576 9.76532C1.20708 3.36604 4.40239 5.12745 3.82218 4.83049L3.82194 4.83095C3.48855 4.68039 3.12138 4.5957 2.73515 4.5957C1.22708 4.5957 0 5.86629 0 7.42798C0 8.41371 0.48952 9.28247 1.22929 9.78997L9.18949 17.4868L9.19155 17.4845C10.4527 18.6911 12.2873 18.9929 13.8584 18.1899L13.8595 18.1923C19.1669 15.3783 17.8749 16.0633 22.9128 13.3923C23.0737 13.2785 25 12.6927 25 10.5735ZM13.3834 12.2686C13.5492 12.0967 13.8196 12.0967 13.9854 12.2686C14.1512 12.4405 14.1512 12.7209 13.9854 12.8929C13.9025 12.9788 13.7943 13.0237 13.6862 13.0237C13.5781 13.0237 13.4663 12.9788 13.3834 12.8929C13.2176 12.7209 13.2176 12.4405 13.3834 12.2686ZM12.0172 11.4238C12.2551 11.4238 12.4462 11.6219 12.4462 11.8649C12.4462 12.1079 12.2551 12.306 12.0172 12.306C11.7829 12.306 11.5955 12.1079 11.5955 11.8649C11.5955 11.6219 11.7829 11.4238 12.0172 11.4238ZM1.8268 7.42788C1.8268 6.91062 2.23411 6.48974 2.735 6.48974C3.23384 6.48974 3.63973 6.91062 3.63973 7.42788C3.63973 7.9455 3.23384 8.36638 2.735 8.36638C2.23406 8.36638 1.8268 7.9455 1.8268 7.42788ZM9.23797 14.3095C9.23797 14.0665 9.42906 13.8684 9.66333 13.8684C9.89764 13.8684 10.0887 14.0665 10.0887 14.3095C10.0887 14.5524 9.89764 14.7506 9.66333 14.7506C9.42906 14.7506 9.23797 14.5524 9.23797 14.3095ZM10.6546 16.3504C10.4714 16.5322 10.2136 16.5173 10.0526 16.3504C9.88681 16.1784 9.88681 15.8981 10.0526 15.7261C10.2185 15.5542 10.4888 15.5542 10.6546 15.7261C10.8205 15.8981 10.8205 16.1784 10.6546 16.3504ZM10.6546 12.8929C10.4884 13.0653 10.2227 13.0692 10.0526 12.8929C9.88681 12.7209 9.88681 12.4406 10.0526 12.2686C10.2185 12.0967 10.4888 12.0967 10.6546 12.2686C10.8205 12.4405 10.8205 12.7209 10.6546 12.8929ZM7.84275 14.3099C7.84275 14.6061 7.87192 14.8954 7.92692 15.1751L2.83839 10.2549C4.29641 10.1979 5.46653 8.95359 5.46653 7.42798C5.46653 7.13494 5.42334 6.85211 5.34329 6.58601L11.4778 10.0123C11.4521 10.0177 11.0293 10.1062 11.055 10.1008L11.0557 10.1041C9.21641 10.5574 7.84275 12.2687 7.84275 14.3099ZM12.0172 17.1951C11.7829 17.1951 11.5955 16.997 11.5955 16.754C11.5955 16.5111 11.783 16.313 12.0172 16.313C12.2551 16.313 12.4462 16.5111 12.4462 16.754C12.4462 16.9971 12.2551 17.1951 12.0172 17.1951ZM12.0197 15.2298C11.5291 15.2298 11.1312 14.8186 11.1312 14.31C11.1312 13.8012 11.5291 13.3901 12.0197 13.3901C12.5102 13.3901 12.9068 13.8012 12.9068 14.31C12.9068 14.8186 12.5103 15.2298 12.0197 15.2298ZM13.9854 16.3504C13.9025 16.4363 13.7943 16.4775 13.6862 16.4775C13.5781 16.4775 13.4699 16.4363 13.3834 16.3504C13.2176 16.1784 13.2176 15.8981 13.3834 15.7261C13.5528 15.5542 13.8196 15.5542 13.9854 15.7261C14.1512 15.8981 14.1512 16.1784 13.9854 16.3504ZM14.3747 14.7506C14.1404 14.7506 13.9493 14.5524 13.9493 14.3095C13.9493 14.0665 14.1404 13.8684 14.3747 13.8684C14.6126 13.8684 14.8 14.0665 14.8 14.3095C14.8 14.5524 14.6126 14.7506 14.3747 14.7506ZM15.719 16.3101C16.0216 15.7112 16.1952 15.0316 16.1952 14.3099C16.1952 12.5489 15.1738 11.033 13.7145 10.3582L19.9672 9.049C19.694 9.48971 19.5334 10.0121 19.5334 10.5735C19.5334 11.8382 20.3383 12.9114 21.4453 13.2742L15.719 16.3101ZM22.2685 11.5118C21.7675 11.5118 21.3603 11.091 21.3603 10.5737C21.3603 10.0561 21.7675 9.63519 22.2685 9.63519C22.7673 9.63519 23.1732 10.0561 23.1732 10.5737C23.1732 11.091 22.7673 11.5118 22.2685 11.5118Z" fill="#0046E2"/>
</svg>
