<svg width="25" height="25" viewBox="0 0 25 25" fill="none" xmlns="http://www.w3.org/2000/svg">
<g clip-path="url(#clip0_1302_1460)">
<path d="M18.6719 18.6778C18.9643 18.6778 19.2013 18.4393 19.2013 18.1451C19.2013 17.8508 18.9643 17.6123 18.6719 17.6123C18.3796 17.6123 18.1426 17.8508 18.1426 18.1451C18.1426 18.4393 18.3796 18.6778 18.6719 18.6778Z" fill="#0046E2"/>
<path d="M6.26763 18.6778C6.55998 18.6778 6.79697 18.4393 6.79697 18.1451C6.79697 17.8508 6.55998 17.6123 6.26763 17.6123C5.97528 17.6123 5.73828 17.8508 5.73828 18.1451C5.73828 18.4393 5.97528 18.6778 6.26763 18.6778Z" fill="#0046E2"/>
<path d="M18.9587 9.63999C18.7945 9.20664 18.3741 8.91553 17.9125 8.91553H7.44917C6.98726 8.91553 6.56675 9.20698 6.40278 9.64072L4.91406 13.5787C4.91538 13.5787 4.9167 13.5786 4.91807 13.5786L20.4589 13.5996L18.9587 9.63999Z" fill="#0046E2"/>
<path d="M20.0831 15.0435H4.91836C3.82715 15.0435 2.93945 15.9346 2.93945 17.0299V20.5854C2.93945 20.9499 3.23428 21.2464 3.59663 21.2464H21.4048C21.7671 21.2464 22.062 20.9499 22.062 20.5854V17.0299C22.0619 15.9346 21.1742 15.0435 20.0831 15.0435ZM6.26797 20.1429C5.16836 20.1429 4.27378 19.2466 4.27378 18.145C4.27378 17.0434 5.16836 16.1471 6.26797 16.1471C7.36758 16.1471 8.26216 17.0434 8.26216 18.145C8.26216 19.2466 7.36753 20.1429 6.26797 20.1429ZM14.3091 19.7722H10.705C10.3005 19.7722 9.97261 19.4442 9.97261 19.0396C9.97261 18.635 10.3005 18.307 10.705 18.307H14.3091C14.7136 18.307 15.0416 18.635 15.0416 19.0396C15.0416 19.4442 14.7136 19.7722 14.3091 19.7722ZM18.6732 20.1429C17.5736 20.1429 16.679 19.2466 16.679 18.145C16.679 17.0434 17.5736 16.1471 18.6732 16.1471C19.7728 16.1471 20.6674 17.0434 20.6674 18.145C20.6674 19.2466 19.7728 20.1429 18.6732 20.1429Z" fill="#0046E2"/>
<path d="M17.4121 23.9146C17.4121 24.514 17.8966 24.9998 18.4942 24.9998H19.3425C19.9401 24.9998 20.4246 24.514 20.4246 23.9146V22.7114H17.4121V23.9146Z" fill="#0046E2"/>
<path d="M23.2998 12.4438H21.5879L22.143 13.909H23.2998C23.7042 13.909 24.0322 13.5811 24.0322 13.1765C24.0322 12.7718 23.7042 12.4438 23.2998 12.4438Z" fill="#0046E2"/>
<path d="M4.58984 23.9146C4.58984 24.514 5.07432 24.9998 5.67192 24.9998H6.52022C7.11782 24.9998 7.60229 24.514 7.60229 23.9146V22.7114H4.58984V23.9146Z" fill="#0046E2"/>
<path d="M3.77686 12.4438H1.70117C1.29668 12.4438 0.96875 12.7718 0.96875 13.1764C0.96875 13.581 1.29668 13.909 1.70117 13.909H3.2229L3.77686 12.4438Z" fill="#0046E2"/>
<path d="M0.732422 3.66045C1.13691 3.66045 1.46484 3.33247 1.46484 2.92788V1.46519H2.94189V4.11274C2.94189 4.51733 3.26982 4.84531 3.67432 4.84531C4.07881 4.84531 4.40674 4.51733 4.40674 4.11274V1.46519H5.88379V5.18467C5.88379 5.58926 6.21172 5.91724 6.61621 5.91724C7.0207 5.91724 7.34863 5.58926 7.34863 5.18467V1.46519H8.82568V2.95864C8.82568 3.36323 9.15361 3.69121 9.55811 3.69121C9.9626 3.69121 10.2905 3.36323 10.2905 2.95864V1.46519H11.7676V5.18467C11.7676 5.58926 12.0955 5.91724 12.5 5.91724C12.9045 5.91724 13.2324 5.58926 13.2324 5.18467V1.46519H14.7095V2.95864C14.7095 3.36323 15.0374 3.69121 15.4419 3.69121C15.8464 3.69121 16.1743 3.36323 16.1743 2.95864V1.46519H17.6514V5.18467C17.6514 5.58926 17.9793 5.91724 18.3838 5.91724C18.7883 5.91724 19.1162 5.58926 19.1162 5.18467V1.46519H20.5933V4.11274C20.5933 4.51733 20.9212 4.84531 21.3257 4.84531C21.7302 4.84531 22.0581 4.51733 22.0581 4.11274V1.46519H23.5352V2.95864C23.5352 3.36323 23.8631 3.69121 24.2676 3.69121C24.6721 3.69121 25 3.36323 25 2.95864V0.732568C25 0.327979 24.6721 0 24.2676 0H0.732422C0.32793 0 0 0.327979 0 0.732568V2.92783C0 3.33247 0.32793 3.66045 0.732422 3.66045Z" fill="#0046E2"/>
<path d="M0.732422 6.48369C1.13693 6.48369 1.46484 6.15571 1.46484 5.75112C1.46484 5.34654 1.13693 5.01855 0.732422 5.01855C0.327916 5.01855 0 5.34654 0 5.75112C0 6.15571 0.327916 6.48369 0.732422 6.48369Z" fill="#0046E2"/>
<path d="M9.52734 6.48369C9.93185 6.48369 10.2598 6.15571 10.2598 5.75112C10.2598 5.34654 9.93185 5.01855 9.52734 5.01855C9.12284 5.01855 8.79492 5.34654 8.79492 5.75112C8.79492 6.15571 9.12284 6.48369 9.52734 6.48369Z" fill="#0046E2"/>
<path d="M15.4531 6.48369C15.8576 6.48369 16.1855 6.15571 16.1855 5.75112C16.1855 5.34654 15.8576 5.01855 15.4531 5.01855C15.0486 5.01855 14.7207 5.34654 14.7207 5.75112C14.7207 6.15571 15.0486 6.48369 15.4531 6.48369Z" fill="#0046E2"/>
<path d="M24.2676 6.48369C24.6721 6.48369 25 6.15571 25 5.75112C25 5.34654 24.6721 5.01855 24.2676 5.01855C23.8631 5.01855 23.5352 5.34654 23.5352 5.75112C23.5352 6.15571 23.8631 6.48369 24.2676 6.48369Z" fill="#0046E2"/>
<path d="M3.67578 7.63164C4.08029 7.63164 4.4082 7.30366 4.4082 6.89907C4.4082 6.49449 4.08029 6.1665 3.67578 6.1665C3.27128 6.1665 2.94336 6.49449 2.94336 6.89907C2.94336 7.30366 3.27128 7.63164 3.67578 7.63164Z" fill="#0046E2"/>
<path d="M21.3223 7.63164C21.7268 7.63164 22.0547 7.30366 22.0547 6.89907C22.0547 6.49449 21.7268 6.1665 21.3223 6.1665C20.9178 6.1665 20.5898 6.49449 20.5898 6.89907C20.5898 7.30366 20.9178 7.63164 21.3223 7.63164Z" fill="#0046E2"/>
</g>
<defs>
<clipPath id="clip0_1302_1460">
<rect width="25" height="25" fill="white"/>
</clipPath>
</defs>
</svg>
