<svg width="30" height="30" viewBox="0 0 30 30" fill="none" xmlns="http://www.w3.org/2000/svg">
<g clip-path="url(#clip0_703_114)">
<path fill-rule="evenodd" clip-rule="evenodd" d="M20.6116 20.4309H9.38749C9.35388 20.4279 9.32312 20.4498 9.3151 20.4826C9.30083 20.5131 9.31067 20.5494 9.33838 20.5685L11.0153 21.965C11.0297 21.9772 11.0481 21.9837 11.067 21.9832H18.9342C18.953 21.9836 18.9714 21.9774 18.986 21.9656L20.6629 20.569C20.6906 20.5499 20.7004 20.5136 20.6862 20.4831C20.6782 20.4493 20.6461 20.4269 20.6116 20.4309Z" fill="#0046E2"/>
<path fill-rule="evenodd" clip-rule="evenodd" d="M1.03484 15.2586H2.58656V14.7414C2.58656 14.4557 2.35497 14.2241 2.0693 14.2241H1.03484C0.749165 14.2241 0.517578 14.4557 0.517578 14.7414C0.517578 15.027 0.749165 15.2586 1.03484 15.2586Z" fill="#0046E2"/>
<path fill-rule="evenodd" clip-rule="evenodd" d="M1.55176 29.2241C1.55176 29.5098 1.78335 29.7413 2.06902 29.7413H5.68972C5.97539 29.7413 6.20698 29.5098 6.20698 29.2241V27.6724H1.55176V29.2241Z" fill="#0046E2"/>
<path fill-rule="evenodd" clip-rule="evenodd" d="M5.01234 20.449C4.9992 20.4377 4.98257 20.4314 4.96529 20.4309H2.58594V21.9826H6.64526C6.67907 21.9859 6.71012 21.9639 6.71819 21.9309C6.73222 21.9013 6.72257 21.866 6.69546 21.8476L5.01234 20.449Z" fill="#0046E2"/>
<path d="M26.6828 16.293H3.31793L0.669148 18.9418C0.572006 19.0388 0.51748 19.1706 0.517578 19.308V26.1206C0.517578 26.4062 0.749166 26.6378 1.03484 26.6378H28.9659C29.2515 26.6378 29.4831 26.4062 29.4831 26.1206V19.308C29.4832 19.1706 29.4287 19.0389 29.3315 18.9418L26.6828 16.293ZM6.20726 25.6033H2.58656C2.30089 25.6033 2.0693 25.3717 2.0693 25.0861C2.0693 24.8004 2.30089 24.5688 2.58656 24.5688H6.20726C6.49293 24.5688 6.72452 24.8004 6.72452 25.0861C6.72452 25.3717 6.49293 25.6033 6.20726 25.6033ZM7.69176 22.2837C7.53518 22.7261 7.11526 23.0206 6.64588 23.0171H2.58656C2.01522 23.0171 1.55209 22.5539 1.55209 21.9827V20.4309C1.55209 19.8596 2.01527 19.3965 2.58656 19.3965H4.96587C5.22599 19.397 5.47781 19.4884 5.6776 19.6551L7.35762 21.0516C7.7205 21.3489 7.8547 21.8437 7.69176 22.2837ZM19.6555 25.6033H10.3452C10.0595 25.6033 9.82792 25.3717 9.82792 25.0861C9.82792 24.8004 10.0595 24.5688 10.3452 24.5688H19.6555C19.9412 24.5688 20.1728 24.8004 20.1728 25.0861C20.1728 25.3717 19.9412 25.6033 19.6555 25.6033ZM21.3231 21.362L19.6462 22.7585C19.4467 22.9255 19.1947 23.0171 18.9345 23.0171H11.0662C10.8058 23.017 10.5538 22.9255 10.354 22.7585L8.67761 21.362C8.31748 21.0627 8.18368 20.5698 8.34297 20.1295C8.50227 19.6892 8.92056 19.396 9.38881 19.3965H20.6129C21.0812 19.396 21.4995 19.6892 21.6588 20.1295C21.818 20.5698 21.6842 21.0627 21.3241 21.362H21.3231ZM27.4141 25.6033H23.7934C23.5078 25.6033 23.2762 25.3717 23.2762 25.0861C23.2762 24.8004 23.5078 24.5688 23.7934 24.5688H27.4141C27.6998 24.5688 27.9314 24.8004 27.9314 25.0861C27.9314 25.3717 27.6998 25.6033 27.4141 25.6033ZM28.4486 21.9826C28.4486 22.5539 27.9855 23.0171 27.4142 23.0171H23.3549C22.886 23.0187 22.4666 22.7256 22.3071 22.2848C22.1476 21.8439 22.2823 21.3503 22.6437 21.0516L24.3257 19.655C24.5256 19.4886 24.7774 19.3971 25.0375 19.3964H27.4142C27.9856 19.3964 28.4487 19.8596 28.4487 20.4309V21.9826H28.4486Z" fill="#0046E2"/>
<path fill-rule="evenodd" clip-rule="evenodd" d="M29.483 14.7414C29.483 14.4557 29.2515 14.2241 28.9658 14.2241H27.9313C27.6456 14.2241 27.4141 14.4557 27.4141 14.7414V15.2586H28.9658C29.2515 15.2586 29.483 15.027 29.483 14.7414Z" fill="#0046E2"/>
<path fill-rule="evenodd" clip-rule="evenodd" d="M23.793 29.2241C23.793 29.5098 24.0246 29.7413 24.3102 29.7413H27.9309C28.2166 29.7413 28.4482 29.5098 28.4482 29.2241V27.6724H23.793V29.2241H23.793Z" fill="#0046E2"/>
<path fill-rule="evenodd" clip-rule="evenodd" d="M24.8083 11.147C24.5971 10.5135 24.0041 10.0861 23.3363 10.0862H6.66352C5.99568 10.0862 5.40274 10.5135 5.19147 11.147L3.82129 15.2586H26.1785L24.8083 11.147Z" fill="#0046E2"/>
<path fill-rule="evenodd" clip-rule="evenodd" d="M24.9877 20.449L23.3051 21.8486C23.2776 21.8667 23.2676 21.9022 23.2818 21.9319C23.2899 21.9649 23.3209 21.9869 23.3547 21.9836H27.4141V20.4319H25.0373C25.0193 20.4315 25.0016 20.4376 24.9877 20.449Z" fill="#0046E2"/>
<path fill-rule="evenodd" clip-rule="evenodd" d="M27.4141 20.4309H27.9313L27.4141 20.4304V20.4309Z" fill="#0046E2"/>
<path fill-rule="evenodd" clip-rule="evenodd" d="M6.72429 6.9828C6.43862 6.9828 6.20703 6.75121 6.20703 6.46554V5.43108C6.20703 5.14541 6.43862 4.91382 6.72429 4.91382C7.00996 4.91382 7.24155 5.14541 7.24155 5.43108V6.46554C7.2415 6.75121 7.00996 6.9828 6.72429 6.9828Z" fill="#0046E2"/>
<path fill-rule="evenodd" clip-rule="evenodd" d="M2.58659 6.9828C2.30092 6.9828 2.06934 6.75121 2.06934 6.46554V5.43108C2.06934 5.14541 2.30092 4.91382 2.58659 4.91382C2.87226 4.91382 3.10385 5.14541 3.10385 5.43108V6.46554C3.10385 6.75121 2.87226 6.9828 2.58659 6.9828Z" fill="#0046E2"/>
<path fill-rule="evenodd" clip-rule="evenodd" d="M27.4137 6.9828C27.1281 6.9828 26.8965 6.75121 26.8965 6.46554V5.43108C26.8965 5.14541 27.1281 4.91382 27.4137 4.91382C27.6994 4.91382 27.931 5.14541 27.931 5.43108V6.46554C27.931 6.75121 27.6994 6.9828 27.4137 6.9828Z" fill="#0046E2"/>
<path fill-rule="evenodd" clip-rule="evenodd" d="M10.862 6.9828C10.5763 6.9828 10.3447 6.75121 10.3447 6.46554V5.43108C10.3447 5.14541 10.5763 4.91382 10.862 4.91382C11.1477 4.91382 11.3792 5.14541 11.3792 5.43108V6.46554C11.3792 6.75121 11.1477 6.9828 10.862 6.9828Z" fill="#0046E2"/>
<path fill-rule="evenodd" clip-rule="evenodd" d="M14.9997 6.9828C14.714 6.9828 14.4824 6.75121 14.4824 6.46554V5.43108C14.4824 5.14541 14.714 4.91382 14.9997 4.91382C15.2853 4.91382 15.5169 5.14541 15.5169 5.43108V6.46554C15.5169 6.75121 15.2853 6.9828 14.9997 6.9828Z" fill="#0046E2"/>
<path fill-rule="evenodd" clip-rule="evenodd" d="M19.1384 6.9828C18.8527 6.9828 18.6211 6.75121 18.6211 6.46554V5.43108C18.6211 5.14541 18.8527 4.91382 19.1384 4.91382C19.424 4.91382 19.6556 5.14541 19.6556 5.43108V6.46554C19.6556 6.75121 19.424 6.9828 19.1384 6.9828Z" fill="#0046E2"/>
<path fill-rule="evenodd" clip-rule="evenodd" d="M23.276 6.9828C22.9904 6.9828 22.7588 6.75121 22.7588 6.46554V5.43108C22.7588 5.14541 22.9904 4.91382 23.276 4.91382C23.5617 4.91382 23.7933 5.14541 23.7933 5.43108V6.46554C23.7933 6.75121 23.5617 6.9828 23.276 6.9828Z" fill="#0046E2"/>
<path fill-rule="evenodd" clip-rule="evenodd" d="M8.79265 8.01722C8.50698 8.01722 8.27539 7.78564 8.27539 7.49997V6.4655C8.27539 6.17983 8.50698 5.94824 8.79265 5.94824C9.07832 5.94824 9.30991 6.17983 9.30991 6.4655V7.49997C9.30991 7.78569 9.07832 8.01722 8.79265 8.01722Z" fill="#0046E2"/>
<path fill-rule="evenodd" clip-rule="evenodd" d="M4.65495 8.01722C4.36928 8.01722 4.1377 7.78564 4.1377 7.49997V6.4655C4.1377 6.17983 4.36928 5.94824 4.65495 5.94824C4.94062 5.94824 5.17221 6.17983 5.17221 6.4655V7.49997C5.17221 7.78569 4.94062 8.01722 4.65495 8.01722Z" fill="#0046E2"/>
<path fill-rule="evenodd" clip-rule="evenodd" d="M12.9313 8.01722C12.6456 8.01722 12.4141 7.78564 12.4141 7.49997V6.4655C12.4141 6.17983 12.6456 5.94824 12.9313 5.94824C13.217 5.94824 13.4486 6.17983 13.4486 6.4655V7.49997C13.4485 7.78569 13.217 8.01722 12.9313 8.01722Z" fill="#0046E2"/>
<path fill-rule="evenodd" clip-rule="evenodd" d="M17.069 8.01722C16.7833 8.01722 16.5518 7.78564 16.5518 7.49997V6.4655C16.5518 6.17983 16.7833 5.94824 17.069 5.94824C17.3547 5.94824 17.5863 6.17983 17.5863 6.4655V7.49997C17.5863 7.78569 17.3547 8.01722 17.069 8.01722Z" fill="#0046E2"/>
<path fill-rule="evenodd" clip-rule="evenodd" d="M21.2067 8.01722C20.921 8.01722 20.6895 7.78564 20.6895 7.49997V6.4655C20.6895 6.17983 20.921 5.94824 21.2067 5.94824C21.4924 5.94824 21.724 6.17983 21.724 6.4655V7.49997C21.724 7.78569 21.4924 8.01722 21.2067 8.01722Z" fill="#0046E2"/>
<path fill-rule="evenodd" clip-rule="evenodd" d="M25.3444 8.01722C25.0587 8.01722 24.8271 7.78564 24.8271 7.49997V6.4655C24.8271 6.17983 25.0587 5.94824 25.3444 5.94824C25.6301 5.94824 25.8617 6.17983 25.8617 6.4655V7.49997C25.8616 7.78569 25.6301 8.01722 25.3444 8.01722Z" fill="#0046E2"/>
<path fill-rule="evenodd" clip-rule="evenodd" d="M29.4827 0.258545H0.517257C0.231587 0.258545 0 0.490132 0 0.775802V1.81027C0 2.66728 0.694713 3.36199 1.55172 3.36199H4.13791V4.39646C4.13791 4.68213 4.3695 4.91371 4.65517 4.91371C4.94084 4.91371 5.17243 4.68213 5.17243 4.39646V3.36199H8.27587V4.39646C8.27587 4.68213 8.50746 4.91371 8.79313 4.91371C9.0788 4.91371 9.31039 4.68213 9.31039 4.39646V3.36199H12.4138V4.39646C12.4138 4.68213 12.6454 4.91371 12.9311 4.91371C13.2168 4.91371 13.4483 4.68213 13.4483 4.39646V3.36199H16.5518V4.39646C16.5518 4.68213 16.7834 4.91371 17.0691 4.91371C17.3547 4.91371 17.5863 4.68213 17.5863 4.39646V3.36199H20.6898V4.39646C20.6898 4.68213 20.9213 4.91371 21.207 4.91371C21.4927 4.91371 21.7243 4.68213 21.7243 4.39646V3.36199H24.8277V4.39646C24.8277 4.68213 25.0593 4.91371 25.345 4.91371C25.6306 4.91371 25.8622 4.68213 25.8622 4.39646V3.36199H28.4484C29.3054 3.36199 30.0001 2.66728 30.0001 1.81027V0.775802C30 0.490132 29.7684 0.258545 29.4827 0.258545Z" fill="#0046E2"/>
</g>
<defs>
<clipPath id="clip0_703_114">
<rect width="30" height="30" fill="white"/>
</clipPath>
</defs>
</svg>
