<svg width="30" height="30" viewBox="0 0 30 30" fill="none" xmlns="http://www.w3.org/2000/svg">
<path d="M6.64899 23.5298C8.2355 23.5298 9.52162 22.2437 9.52162 20.6572C9.52162 19.0707 8.2355 17.7845 6.64899 17.7845C5.06249 17.7845 3.77637 19.0707 3.77637 20.6572C3.77637 22.2437 5.06249 23.5298 6.64899 23.5298Z" fill="#0046E2"/>
<path d="M23.4613 16.3425C23.6202 15.91 23.7016 15.4529 23.7016 14.992C23.7009 12.8289 21.9467 11.0759 19.7835 11.0765C19.3236 11.0767 18.8674 11.1578 18.4355 11.3163V18.6674C20.4654 19.4132 22.7155 18.3723 23.4613 16.3425Z" fill="#0046E2"/>
<path d="M11.5112 7.56846L7.88011 12.3362C7.7902 12.4534 7.66433 12.5379 7.52179 12.5767L1.44637 14.2359C0.595894 14.4686 0.00460894 15.2393 0 16.121V18.3385C0.00879888 19.4174 0.889106 20.2855 1.96793 20.2793H2.45179C2.65223 17.9615 4.69383 16.2449 7.0117 16.4454C9.05154 16.6219 10.6692 18.2395 10.8456 20.2793H17.095V6.45251H13.7629C12.8799 6.45536 12.0482 6.86757 11.5112 7.56846Z" fill="#0046E2"/>
<path d="M28.231 13.8334C27.939 13.8058 27.6978 13.5938 27.6331 13.3078C27.4263 12.3521 27.0434 11.4433 26.5038 10.6278C26.3396 10.3814 26.3567 10.0564 26.5457 9.82839L27.6703 8.46959L26.3024 7.08439L24.9495 8.20512C24.7245 8.39191 24.4044 8.41127 24.1585 8.25297C23.3381 7.71615 22.4272 7.33219 21.4701 7.11976C21.1854 7.05959 20.9726 6.82168 20.9444 6.53208L20.775 4.77649H18.4356V9.91227C21.2413 9.16763 24.1195 10.8383 24.8641 13.6441C25.6087 16.4498 23.938 19.3279 21.1323 20.0726C20.2487 20.3071 19.3192 20.3071 18.4355 20.0726V25.2234H20.7749L20.9447 23.46C20.9726 23.1693 21.185 22.9299 21.4703 22.8677C22.4261 22.6609 23.3351 22.2779 24.1506 21.7383C24.3971 21.5741 24.7221 21.5912 24.9501 21.7802L26.3062 22.9031L27.6973 21.512L26.5743 20.156C26.3881 19.9306 26.3695 19.6106 26.5282 19.365C27.0661 18.5448 27.4512 17.634 27.6649 16.6766C27.7279 16.3913 27.9677 16.179 28.2585 16.151L29.9999 15.9817V14.0032L28.231 13.8334Z" fill="#0046E2"/>
</svg>
