<svg width="30" height="30" viewBox="0 0 30 30" fill="none" xmlns="http://www.w3.org/2000/svg">
<g clip-path="url(#clip0_703_101)">
<path d="M29.0426 6.5625H0.957432C0.42867 6.5625 0 6.94737 0 7.42211V11.2107C0 11.6854 0.42867 12.0703 0.957432 12.0703H29.0426C29.5713 12.0703 30 11.6854 30 11.2107V7.42211C30.0001 6.94737 29.5714 6.5625 29.0426 6.5625Z" fill="#0046E2"/>
<path d="M27.7627 28.6332H26.9388V12.6981H3.0618V28.6332H2.23785C1.87621 28.6332 1.58301 28.9264 1.58301 29.288C1.58301 29.6497 1.87621 29.9429 2.23785 29.9429H27.7626C28.1243 29.9429 28.4175 29.6497 28.4175 29.288C28.4175 28.9264 28.1243 28.6332 27.7627 28.6332ZM19.7187 26.6754C19.2033 26.6754 18.7872 26.2592 18.7872 25.744C18.7872 25.2286 19.2034 24.8097 19.7187 24.8097C20.2339 24.8097 20.6501 25.2286 20.6501 25.744C20.6501 26.2592 20.234 26.6754 19.7187 26.6754ZM10.3369 22.6562L11.2879 20.1596C11.4093 19.841 11.7196 19.6271 12.0603 19.6271H17.9402C18.2809 19.6271 18.5911 19.841 18.7125 20.1596L19.6635 22.6562H10.3369ZM17.991 25.7427C17.991 25.895 17.8677 26.0182 17.7154 26.0182H12.2852C12.1329 26.0182 12.0096 25.895 12.0096 25.7427C12.0096 25.5904 12.1329 25.4671 12.2852 25.4671H17.7154C17.8677 25.4671 17.991 25.5904 17.991 25.7427ZM11.2134 25.744C11.2134 26.2592 10.7972 26.6754 10.282 26.6754C9.76668 26.6754 9.35055 26.2592 9.35055 25.744C9.35055 25.2286 9.76668 24.8097 10.282 24.8097C10.7972 24.8097 11.2134 25.2286 11.2134 25.744ZM11.2408 28.2928V27.491H18.7597V28.2928C18.7597 28.4447 18.8508 28.5737 18.9803 28.6332H11.0204C11.1498 28.5738 11.2408 28.4447 11.2408 28.2928ZM20.7768 28.6332C20.9063 28.5737 20.9973 28.4447 20.9973 28.2928V27.491H21.2641C21.6912 27.491 22.0357 27.1466 22.0357 26.7195C22.0033 26.5071 22.2503 25.101 21.0932 23.8756L20.4621 23.2087L20.4493 23.175C20.5471 23.1944 20.6498 23.2074 20.7583 23.2074C21.301 23.2074 21.7407 22.9448 21.7407 22.6199C21.7407 22.2967 21.301 22.034 20.7583 22.034C20.4941 22.034 20.255 22.097 20.0778 22.1982L19.2275 19.9625C19.0236 19.4278 18.511 19.0751 17.9406 19.0751H12.0599C11.4895 19.0751 10.9769 19.4278 10.773 19.9625L9.92289 22.1978C9.74646 22.0969 9.50828 22.0341 9.24455 22.0341C8.70186 22.0341 8.25982 22.2968 8.25982 22.6199C8.25982 22.9448 8.70186 23.2075 9.24455 23.2075C9.3523 23.2075 9.45408 23.1946 9.55105 23.1754L9.5384 23.2087L8.90734 23.8756C7.75018 25.1068 7.99756 26.5076 7.96486 26.7195C7.96486 27.1466 8.30934 27.4911 8.73648 27.4911H9.0032V28.2929C9.0032 28.4447 9.09426 28.5738 9.22375 28.6333H5.0616V17.0552H24.9389V28.6333L20.7768 28.6332Z" fill="#0046E2"/>
<path d="M7.65896 3.95173L5.6973 4.3841C5.41119 4.44451 5.31896 4.80375 5.53517 4.99769C6.04072 5.45871 6.71156 5.73849 7.44914 5.73849C8.30121 5.73849 9.06428 5.36332 9.58248 4.77193C9.96715 4.33318 10.5394 4.10425 11.1244 4.10425H11.3184V5.93877H12.5838V4.10437H17.4163V5.93888H18.6817V4.10437H18.8788C19.4607 4.10437 20.033 4.3333 20.4176 4.77205C20.9391 5.36343 21.6989 5.73861 22.551 5.73861C23.2886 5.73861 23.9595 5.45882 24.4618 4.99781C24.678 4.8007 24.5858 4.44462 24.2996 4.38421L22.338 3.95185C22.1059 3.90099 21.9374 3.69433 21.9374 3.45585V2.34298C21.9374 2.10134 22.1059 1.89785 22.338 1.84382L24.3028 1.41462C24.5889 1.35105 24.6812 0.994976 24.4649 0.797808C23.9594 0.336792 23.2886 0.0570068 22.551 0.0570068C21.6989 0.0570068 20.9358 0.432183 20.4176 1.02351C20.033 1.46226 19.4607 1.69119 18.8757 1.69119H11.1245C10.5395 1.69119 9.96721 1.46226 9.58254 1.02351C9.06428 0.432183 8.30121 0.0570068 7.44914 0.0570068C6.7115 0.0570068 6.04066 0.339956 5.53834 0.797808C5.32213 0.994917 5.41435 1.35105 5.70047 1.41462L7.65896 1.84382C7.89105 1.89785 8.05957 2.10134 8.05957 2.34298V3.45257C8.05957 3.69421 7.89111 3.90087 7.65896 3.95173ZM12.5647 2.34298H17.4355C17.7439 2.34298 17.9919 2.59095 17.9919 2.89939C17.9919 3.2046 17.7439 3.4558 17.4355 3.4558H12.5647C12.2563 3.4558 12.0083 3.2046 12.0083 2.89939C12.0084 2.59095 12.2563 2.34298 12.5647 2.34298Z" fill="#0046E2"/>
</g>
<defs>
<clipPath id="clip0_703_101">
<rect width="30" height="30" fill="white"/>
</clipPath>
</defs>
</svg>
