<svg width="30" height="30" viewBox="0 0 30 30" fill="none" xmlns="http://www.w3.org/2000/svg">
<g clip-path="url(#clip0_467_1060)">
<path d="M21.7001 23.7919C22.0581 22.9724 22.6235 22.2859 23.3106 21.7608C23.0809 21.7888 22.8543 21.8064 22.6318 21.8064C21.4709 21.8064 20.4099 21.423 19.5045 20.6636C18.1698 21.8483 16.4543 22.6062 14.5645 22.7298C14.6048 23.1085 14.6984 23.4619 14.8335 23.7919L21.7001 23.7919Z" fill="white"/>
<path d="M21.2629 14.4796C21.2629 10.4857 18.014 7.23682 14.0201 7.23682C10.0262 7.23682 6.77734 10.4857 6.77734 14.4796C6.77734 18.4734 10.0262 21.7223 14.0201 21.7223C18.014 21.7223 21.2629 18.4734 21.2629 14.4796ZM8.32938 14.4796C8.32938 11.3368 10.8773 8.78885 14.0201 8.78885C17.1629 8.78885 19.7108 11.3368 19.7108 14.4796C19.7108 17.6224 17.1629 20.1703 14.0201 20.1703C10.8773 20.1703 8.32938 17.6224 8.32938 14.4796Z" fill="white"/>
<path d="M13.7359 23.792C13.6314 23.4547 13.5605 23.1018 13.5285 22.7324C11.6356 22.6207 9.91491 21.8742 8.57344 20.6978C7.86314 21.5782 7.60136 22.6166 7.78555 23.792H13.7359Z" fill="white"/>
<path d="M27.6213 7.81802L26.8018 8.63748L26.0703 7.90597L27.1655 6.81077C26.9834 6.45174 26.7842 6.10356 26.5695 5.76524L25.2498 7.08499L24.5183 6.35348L25.9694 4.90183C25.7341 4.59245 25.4847 4.29449 25.2213 4.00891L23.6978 5.53301L22.9663 4.8015L24.4898 3.2774C24.2043 3.0146 23.9063 2.76524 23.5969 2.52932L22.1458 3.98097L21.4143 3.24946L22.734 1.92971C22.3962 1.71501 22.048 1.51586 21.689 1.33374L20.5938 2.42894L19.8623 1.69743L20.6817 0.877964C19.3247 0.336252 17.8508 0.0269264 16.3086 0L28.4997 12.1906C28.4728 10.6489 28.1635 9.175 27.6213 7.81802Z" fill="white"/>
<path d="M5.77023 15.0249C3.73241 15.2473 2.70602 16.8439 2.19336 18.2604C2.59791 19.5284 3.20838 20.7265 4.01441 21.8228C5.14688 22.067 6.1469 22.7757 6.73615 23.7918H6.73716C6.55246 22.3541 6.93221 21.0515 7.84114 19.9682C6.65436 18.6333 5.89491 16.9168 5.77023 15.0249Z" fill="white"/>
<path d="M28.1874 13.3412L15.1587 0.3125C14.8343 0.557718 14.6056 0.922462 14.5508 1.3451L27.1547 13.9496C27.5774 13.8947 27.9422 13.6656 28.1874 13.3412Z" fill="white"/>
<path d="M14.5135 6.22775C18.6662 6.47504 21.9974 9.78961 22.2695 13.9361C23.1707 13.8393 23.9431 13.4699 24.5737 12.8326L13.8105 2.06885C13.142 2.07971 12.4866 2.14437 11.8477 2.25769C13.4406 3.17283 14.3645 4.53916 14.5135 6.22775Z" fill="white"/>
<path d="M24.3061 25.8614L25.6175 23.238L29.9456 23.7185C29.1996 22.479 27.8846 21.7227 26.4365 21.7227C24.6895 21.7227 23.1234 22.8318 22.5389 24.4816L22.4173 24.8267H6.0978L5.95761 24.5318C5.44494 23.4542 4.34556 22.7573 3.15675 22.7573C1.44488 22.7573 0.0527344 24.1495 0.0527344 25.8613C0.0527344 27.5732 1.44488 28.9654 3.15675 28.9654C4.34561 28.9654 5.44494 28.269 5.95761 27.1909L6.0978 26.896H22.4167L22.5383 27.2411C23.1229 28.8914 24.6889 30.0001 26.436 30.0001C27.884 30.0001 29.1991 29.2437 29.9451 28.0042L25.617 28.4848L24.3061 25.8614ZM3.1562 27.4134C2.29895 27.4134 1.60416 26.7186 1.60416 25.8613C1.60416 25.0041 2.29895 24.3093 3.1562 24.3093C4.01345 24.3093 4.70823 25.0041 4.70823 25.8613C4.70823 26.7186 4.01345 27.4134 3.1562 27.4134Z" fill="white"/>
<path d="M8.53623 8.29681C9.86835 7.11417 11.5797 6.35679 13.4659 6.23055C13.2895 4.5699 12.2073 3.36861 10.2336 2.65625C7.62517 3.49435 5.39129 5.17258 3.84961 7.37181C5.62049 6.89532 7.2387 7.20884 8.53623 8.29681Z" fill="white"/>
<path d="M5.76706 13.9857C5.87931 12.0974 6.62325 10.3798 7.79609 9.03989C6.49862 7.99072 4.88501 7.90534 2.98742 8.79467C2.10537 10.4993 1.60352 12.4316 1.60352 14.4797C1.60352 15.2165 1.67232 15.9417 1.797 16.6525C2.71169 15.0592 4.07848 14.1347 5.76706 13.9857Z" fill="white"/>
<path d="M26.4295 14.6866L25.3069 13.564C24.4812 14.4015 23.4636 14.8713 22.2732 14.9727C22.1609 16.8615 21.417 18.5796 20.2441 19.9195C21.5427 20.9696 23.1562 21.055 25.0544 20.1647C25.9261 18.4746 26.3974 16.6065 26.4295 14.6866Z" fill="white"/>
<path d="M14.6852 15.8766L16.2398 17.4312L16.9713 16.6997L15.4167 15.1451C15.5134 14.9428 15.5719 14.7188 15.5719 14.4798C15.5719 14.2408 15.5134 14.0168 15.4167 13.8145L16.9723 12.2589L16.2408 11.5274L14.6852 13.083C14.4829 12.9863 14.2589 12.9278 14.0199 12.9278C13.7809 12.9278 13.5569 12.9863 13.3546 13.083L11.7979 11.5269L11.0664 12.2584L12.6231 13.815C12.5263 14.0173 12.4679 14.2413 12.4679 14.4803C12.4679 14.7193 12.5263 14.9433 12.6231 15.1456L11.0675 16.7012L11.799 17.4327L13.3546 15.8771C13.5569 15.9739 13.7809 16.0323 14.0199 16.0323C14.2589 16.0318 14.4829 15.9734 14.6852 15.8766Z" fill="white"/>
</g>
<defs>
<clipPath id="clip0_467_1060">
<rect width="30" height="30" fill="white"/>
</clipPath>
</defs>
</svg>
