<svg width="30" height="30" viewBox="0 0 30 30" fill="none" xmlns="http://www.w3.org/2000/svg">
<path fill-rule="evenodd" clip-rule="evenodd" d="M6.95545 6.99076C7.22705 6.99076 7.44725 7.21096 7.44725 7.48256C7.44725 7.75416 7.22705 7.97436 6.95545 7.97436H2.65217C2.38057 7.97436 2.16037 7.75416 2.16037 7.48256C2.16037 7.21096 2.38057 6.99076 2.65217 6.99076H6.95545ZM10.202 19.1708H9.14312C8.87152 19.1708 8.65131 19.391 8.65131 19.6626C8.65131 19.9342 8.87152 20.1544 9.14312 20.1544H10.202C10.4736 20.1544 10.6938 19.9342 10.6938 19.6626C10.6938 19.391 10.4736 19.1708 10.202 19.1708ZM6.86889 19.1708C7.14049 19.1708 7.3607 19.391 7.3607 19.6626C7.3607 19.9342 7.14049 20.1544 6.86889 20.1544H1.60629C1.33469 20.1544 1.11449 19.9342 1.11449 19.6626C1.11449 19.391 1.33469 19.1708 1.60629 19.1708H6.86889ZM2.64344 10.0358C2.91504 10.0358 3.13525 10.256 3.13525 10.5276C3.13525 10.7992 2.91504 11.0194 2.64344 11.0194H0.491803C0.220205 11.0194 0 10.7992 0 10.5276C0 10.256 0.220205 10.0358 0.491803 10.0358H2.64344ZM9.95029 10.0358H5.40682C5.13523 10.0358 4.91502 10.256 4.91502 10.5276C4.91502 10.7992 5.13523 11.0194 5.40682 11.0194H9.95029C10.2219 11.0194 10.4421 10.7992 10.4421 10.5276C10.4421 10.256 10.2219 10.0358 9.95029 10.0358ZM7.4775 13.0808C7.7491 13.0808 7.9693 13.301 7.9693 13.5726C7.9693 13.8442 7.7491 14.0644 7.4775 14.0644H2.55762C2.28602 14.0644 2.06582 13.8442 2.06582 13.5726C2.06582 13.301 2.28602 13.0808 2.55762 13.0808H7.4775ZM7.72156 16.1258C7.99316 16.1258 8.21336 16.346 8.21336 16.6176C8.21336 16.8892 7.99316 17.1094 7.72156 17.1094H5.04092C4.76932 17.1094 4.54912 16.8892 4.54912 16.6176C4.54912 16.346 4.76932 16.1258 5.04092 16.1258H7.72156ZM2.52418 16.1258C2.79578 16.1258 3.01598 16.346 3.01598 16.6176C3.01598 16.8892 2.79578 17.1094 2.52418 17.1094H0.540246C0.268648 17.1094 0.0484426 16.8892 0.0484426 16.6176C0.0484426 16.346 0.268648 16.1258 0.540246 16.1258H2.52418ZM6.34684 22.2158C6.61844 22.2158 6.83865 22.436 6.83865 22.7076C6.83865 22.9792 6.61844 23.1994 6.34684 23.1994H3.57031C3.29871 23.1994 3.0785 22.9792 3.0785 22.7076C3.0785 22.436 3.29871 22.2158 3.57031 22.2158H6.34684ZM19.905 11.2833C17.7999 11.2833 16.0933 12.99 16.0933 15.0951C16.0933 17.2002 17.7999 18.9068 19.905 18.9068C22.0101 18.9068 23.7167 17.2002 23.7167 15.0951C23.7167 12.99 22.0101 11.2833 19.905 11.2833ZM21.9684 16.2872C21.8326 16.5217 21.5324 16.6016 21.298 16.4658L19.69 15.5375C19.5261 15.4577 19.4132 15.2896 19.4132 15.0951V12.8304C19.4132 12.5588 19.6334 12.3386 19.905 12.3386C20.1766 12.3386 20.3968 12.5588 20.3968 12.8304V14.8125L21.7898 15.6167C22.0242 15.7525 22.1042 16.0527 21.9684 16.2872ZM28.3275 13.0851C28.1153 12.1935 27.762 11.3419 27.2814 10.5616L28.0093 8.92281L26.0772 6.99076L24.4379 7.71881C23.6577 7.23844 22.8065 6.88502 21.9151 6.67293L21.2712 5H18.5389L17.8949 6.67293C17.0037 6.88502 16.1524 7.23844 15.3722 7.71881L13.7329 6.99076H9.45602C9.18443 6.99076 8.96422 7.21096 8.96422 7.48256C8.96422 7.75416 9.18443 7.97436 9.45602 7.97436H12.7493L11.8008 8.92287L12.5288 10.562C12.0484 11.3422 11.695 12.1936 11.4829 13.085L9.81012 13.7289V16.4613L11.4826 17.105C11.6948 17.9965 12.0481 18.8482 12.5287 19.6284L11.8008 21.2673L12.7493 22.2157H9.08287C8.81127 22.2157 8.59107 22.4359 8.59107 22.7075C8.59107 22.9791 8.81127 23.1993 9.08287 23.1993H13.7329L15.3722 22.4712C16.1524 22.9516 17.0037 23.305 17.895 23.5171L18.5389 25.1901H21.2713L21.9151 23.5176C22.8066 23.3054 23.6582 22.952 24.4385 22.4715L26.0773 23.1994L28.0094 21.2673L27.2814 19.6279C27.7617 18.8478 28.1151 17.9965 28.3273 17.1051L30 16.4612V13.7288L28.3275 13.0851ZM19.905 20.6165C16.8553 20.6165 14.3835 18.1447 14.3835 15.0951C14.3835 12.0454 16.8553 9.57365 19.905 9.57365C22.9547 9.57365 25.4265 12.0455 25.4265 15.0951C25.4265 18.1447 22.9547 20.6165 19.905 20.6165Z" fill="white"/>
</svg>
