<svg width="30" height="30" viewBox="0 0 30 30" fill="none" xmlns="http://www.w3.org/2000/svg">
<path d="M4.14688 13.4371V4.65129C4.14688 2.65647 5.76975 1.03359 7.76457 1.03359H22.2354C24.2302 1.03359 25.853 2.65647 25.853 4.65129V13.4371H26.3698C26.5468 13.4371 26.7196 13.4551 26.8866 13.4892V4.65129C26.8866 2.08658 24.8001 0 22.2354 0H7.76457C5.19986 0 3.11328 2.08658 3.11328 4.65129V13.4891C3.28033 13.4551 3.45312 13.4371 3.63008 13.4371L4.14688 13.4371Z" fill="white"/>
<path d="M15.0001 15.9194L14.1434 17.2044L12.416 16.3407V19.1222H17.5841V16.3407L15.8568 17.2044L15.0001 15.9194Z" fill="white"/>
<path d="M6.97072 19.3036C7.00629 19.2831 7.02369 19.2408 7.01297 19.2009L7.01109 19.1935C6.99938 19.1499 6.96316 19.1221 6.92197 19.1221H6.21463V14.9876H6.92197C6.96316 14.9876 6.99943 14.9597 7.0101 14.9196L7.01303 14.9087C7.02375 14.8688 7.00629 14.8265 6.97078 14.8059L6.39006 14.4707H3.63053C2.77564 14.4707 2.08008 15.1663 2.08008 16.0212V21.1893C2.08008 22.0442 2.77564 22.7397 3.63053 22.7397H8.13756L6.35801 19.6574L6.97072 19.3036Z" fill="white"/>
<path d="M17.603 25.6973L17.2494 25.0847C17.2289 25.0491 17.1866 25.0316 17.1466 25.0424L17.1393 25.0443C17.0956 25.056 17.0678 25.0922 17.0678 25.1335V25.8408H15.7031L17.2064 30.0001L18.4232 28.3319L20.9019 29.158L19.4021 24.6587L17.603 25.6973Z" fill="white"/>
<path d="M21.9894 18.9331L21.9933 18.9185C22.0944 18.5398 22.3876 18.2477 22.7525 18.137V15.9729C22.3876 15.862 22.0941 15.569 21.992 15.1864L21.9883 15.1726C21.8865 14.7937 21.9945 14.3943 22.2549 14.116L21.1732 12.2424C20.8011 12.3298 20.3996 12.223 20.1192 11.9423L20.1141 11.9372C19.8326 11.6559 19.7256 11.2542 19.8129 10.8821L17.9393 9.80037C17.6608 10.0607 17.2607 10.1684 16.8784 10.0658L16.8638 10.0619C16.4851 9.96086 16.193 9.66766 16.0823 9.30273H13.9181C13.807 9.66748 13.5144 9.96092 13.1321 10.0632L13.1218 10.0659C12.74 10.168 12.3402 10.0602 12.0616 9.80008L10.1877 10.882C10.2751 11.254 10.1683 11.6556 9.88764 11.9359L9.88248 11.941C9.60123 12.2226 9.19934 12.3296 8.82738 12.2422L7.74568 14.1159C8.00602 14.3944 8.11377 14.7944 8.01111 15.1768L8.00719 15.1913C7.90617 15.57 7.61297 15.8621 7.24805 15.9729V18.137C7.61297 18.2479 7.90641 18.5409 8.00853 18.9235L8.01223 18.9373C8.11395 19.3162 8.00602 19.7156 7.74562 19.9939L8.82732 21.8675C9.19951 21.7802 9.60094 21.8869 9.88131 22.1676L9.88641 22.1727C10.1679 22.454 10.2749 22.8557 10.1876 23.2278L12.0612 24.3095C12.3397 24.0491 12.7397 23.9414 13.1221 24.0441L13.1367 24.048C13.5154 24.149 13.8075 24.4422 13.9182 24.8072H16.0823C16.1933 24.4422 16.4862 24.1488 16.8689 24.0467L16.8827 24.043C17.2618 23.9413 17.6612 24.0493 17.9392 24.3096L19.8129 23.2279C19.7255 22.8559 19.8323 22.4543 20.1129 22.1739L20.1181 22.1688C20.3994 21.8872 20.8011 21.7801 21.1732 21.8676L22.2549 19.994C21.9946 19.7155 21.8868 19.3154 21.9894 18.9331ZM15.0003 23.2567C11.5806 23.2567 8.79855 20.4746 8.79855 17.055C8.79855 13.6353 11.5806 10.8532 15.0003 10.8532C18.42 10.8532 21.202 13.6353 21.202 17.055C21.202 20.4746 18.42 23.2567 15.0003 23.2567Z" fill="white"/>
<path d="M26.3704 14.4707H23.6109L23.0302 14.8059C22.9946 14.8264 22.9772 14.8687 22.9879 14.9086L22.9898 14.916C23.0015 14.9596 23.0377 14.9874 23.079 14.9874H23.7863V19.1219H23.079C23.0378 19.1219 23.0015 19.1498 22.9909 19.1898L22.9879 19.2008C22.9772 19.2407 22.9947 19.2829 23.0302 19.3036L23.6428 19.6572L21.8633 22.7396H26.3703C27.2252 22.7396 27.9208 22.0441 27.9208 21.1892V16.021C27.9208 15.1663 27.2253 14.4707 26.3704 14.4707Z" fill="white"/>
<path d="M15.0002 11.8867C12.1505 11.8867 9.83203 14.2052 9.83203 17.0549C9.83203 19.9046 12.1505 22.223 15.0002 22.223C17.8499 22.223 20.1683 19.9046 20.1683 17.0549C20.1683 14.2052 17.8499 11.8867 15.0002 11.8867ZM18.6179 19.1221C18.6179 19.6921 18.1542 20.1558 17.5842 20.1558H12.4161C11.8461 20.1558 11.3824 19.6921 11.3824 19.1221V14.6682L13.7895 15.8718L15.0002 14.0559L16.2107 15.8717L18.6179 14.6682V19.1221Z" fill="white"/>
<path d="M12.9337 25.1335C12.9337 25.0923 12.9058 25.0561 12.8658 25.0454L12.8548 25.0425C12.8149 25.0316 12.7726 25.0492 12.7521 25.0847L12.3984 25.6974L10.5994 24.6587L9.09961 29.158L11.5782 28.3319L12.7915 29.9952L14.2688 25.8408H12.9338V25.1335H12.9337Z" fill="white"/>
<path d="M15.8359 3.10072L14.9997 1.42822L14.1635 3.10072H11.9668L13.3958 5.24432L12.6321 7.53551L14.9997 6.74637L17.3673 7.53551L16.6036 5.24432L18.0327 3.10072H15.8359Z" fill="white"/>
<path d="M22.5547 3.10072L21.7184 1.42822L20.8822 3.10072H18.6855L20.1146 5.24432L19.3509 7.53551L21.7184 6.74637L24.086 7.53551L23.3223 5.24432L24.7513 3.10072H22.5547Z" fill="white"/>
<path d="M9.11717 3.10072L8.28098 1.42822L7.44473 3.10072H5.24805L6.67709 5.24432L5.91338 7.53551L8.28098 6.74637L10.6485 7.53551L9.88481 5.24432L11.3138 3.10072H9.11717Z" fill="white"/>
</svg>
