<svg width="30" height="30" viewBox="0 0 30 30" fill="none" xmlns="http://www.w3.org/2000/svg">
<g clip-path="url(#clip0_467_1083)">
<path fill-rule="evenodd" clip-rule="evenodd" d="M21.8601 4.63425L24.1729 2.95969L27.0403 5.82706L25.3657 8.13988C26.2332 9.44775 26.8597 10.9294 27.1821 12.5213L30 12.9724V17.0276L27.9945 17.3486C26.9913 16.5862 25.7928 16.0677 24.4874 15.8809C24.514 15.5907 24.5282 15.2971 24.5282 15C24.5282 9.73769 20.2623 5.47175 15 5.47175C9.73769 5.47175 5.47175 9.73769 5.47175 15C5.47175 20.2623 9.73769 24.5282 15 24.5282C15.2971 24.5282 15.5907 24.5139 15.8809 24.4874C16.0678 25.7929 16.5862 26.9912 17.3486 27.9945L17.0276 30H12.9724L12.5214 27.1821C10.9293 26.8599 9.448 26.2331 8.13994 25.3657L5.82713 27.0403L2.95969 24.1729L4.63425 21.8601C3.76675 20.5522 3.14019 19.0706 2.81787 17.4787L0 17.0276V12.9724L2.81781 12.5214C3.14 10.9293 3.76688 9.448 4.63425 8.13994L2.95969 5.82713L5.82713 2.95975L8.13994 4.63431C9.44788 3.76681 10.9294 3.14025 12.5214 2.81794L12.9724 0H17.0276L17.4786 2.81781C19.0705 3.14019 20.552 3.76681 21.8601 4.63425ZM19.6621 24.3689L21.7445 26.4513C22.1237 26.8304 22.7385 26.8304 23.1177 26.4513C24.9805 24.5884 25.2899 24.2383 27.1439 22.3658C27.5209 21.9866 27.5192 21.3736 27.1401 20.9964C26.7609 20.6193 26.1478 20.6211 25.7708 21.0002L22.4296 24.3899L21.0354 22.9957C20.6562 22.6165 20.0414 22.6165 19.6623 22.9957C19.2829 23.3749 19.2829 23.9897 19.6621 24.3689ZM23.4016 16.8033C19.7574 16.8033 16.8032 19.7575 16.8032 23.4017C16.8033 27.0458 19.7575 30 23.4016 30C27.0458 30 30 27.0458 30 23.4016C30 19.7575 27.0458 16.8033 23.4016 16.8033ZM22.4244 22.9706L21.7424 22.2886C20.9729 21.5193 19.7245 21.5193 18.9551 22.2886C18.1856 23.0581 18.1856 24.3066 18.9551 25.076L21.0374 27.1584C21.8069 27.9278 23.0554 27.9278 23.8248 27.1584C25.1783 25.8049 26.5071 24.4292 27.8542 23.0696C28.6184 22.2984 28.6154 21.0533 27.8452 20.2874C27.0739 19.5203 25.8231 19.5226 25.0586 20.2982L22.4244 22.9706ZM10.4154 20.6294H11.8282V17.2036C11.8282 16.9274 12.0521 16.7036 12.3282 16.7036C12.6043 16.7036 12.8282 16.9274 12.8282 17.2036V20.6294H16.3251C16.5453 20.0676 16.8308 19.5386 17.1717 19.0512V17.2036C17.1717 16.9274 17.3956 16.7036 17.6717 16.7036C17.9479 16.7036 18.1717 16.9274 18.1717 17.2036V17.8898C18.6842 17.4034 19.2646 16.9879 19.8971 16.6586V16.181C19.8971 15.0912 18.9264 14.4724 17.8221 14.1984C15.9677 13.7384 14.0877 13.7073 12.1779 14.1984C11.0762 14.4816 10.1029 15.0906 10.1029 16.181V20.3171C10.1029 20.4891 10.2433 20.6294 10.4154 20.6294ZM15 8.16081C13.7829 8.16081 12.7963 8.85444 12.7963 10.454C12.7963 12.0536 13.7829 13.3503 15 13.3503C16.2171 13.3503 17.2037 12.0536 17.2037 10.454C17.2037 8.85444 16.2171 8.16081 15 8.16081Z" fill="white"/>
</g>
<defs>
<clipPath id="clip0_467_1083">
<rect width="30" height="30" fill="white"/>
</clipPath>
</defs>
</svg>
